<?xml version="1.0" encoding="utf-8"?>
<!-- Generator: Adobe Illustrator 24.2.3, SVG Export Plug-In . SVG Version: 6.00 Build 0)  -->
<svg version="1.1" id="Layer_1" xmlns="http://www.w3.org/2000/svg" xmlns:xlink="http://www.w3.org/1999/xlink" x="0px" y="0px"
	 viewBox="0 0 257.9 200.8" style="enable-background:new 0 0 257.9 200.8;" xml:space="preserve">
<style type="text/css">
	.st0{fill:#2BABE2;}
	.st1{fill:#2F358B;}
	.st2{fill:#E72479;}
	.st3{fill:#63318A;}
	.st4{fill:none;stroke:#63318A;stroke-miterlimit:10;}
	.st5{fill:#808081;stroke:#F39322;stroke-width:3;stroke-miterlimit:10;}
	.st6{fill:#F39322;}
	.st7{fill:none;stroke:#66B32E;stroke-width:2;stroke-miterlimit:10;}
	.st8{fill:#66B32E;}
	.st9{fill:none;stroke:#C1282E;stroke-width:2;stroke-miterlimit:10;}
	.st10{fill:#C1282E;}
</style>
<symbol  id="A" viewBox="-19.3 -19.3 38.6 38.6">
	<circle class="st0" cx="0" cy="0" r="19.3"/>
	<g>
		<path class="st1" d="M-1,9.9h2.6L7.9-7.3H5.3L3.6-2.1h-6.8l-1.9-5.2h-2.4L-1,9.9z M2.8-0.2L0.2,7.4l-2.8-7.6H2.8z"/>
	</g>
</symbol>
<symbol  id="B" viewBox="-19.3 -19.5 38.6 39">
	<g>
		<circle class="st2" cx="0" cy="0.2" r="19.3"/>
		<g>
			<path class="st3" d="M-5.8,9.2h7.4c2,0,3.5-0.6,4.3-1.8C6.5,6.7,6.7,5.9,6.7,5c0-1.1-0.3-2-0.9-2.7C5.5,1.9,5,1.6,4.4,1.3
				c0.9-0.3,1.5-0.7,2-1.1C7.1-0.6,7.5-1.6,7.5-3c0-1.1-0.4-2.1-1-3c-1-1.3-2.7-2-5-2h-7.3V9.2z M0.7,2c1,0,1.8,0.1,2.3,0.4
				c0.9,0.4,1.3,1.2,1.3,2.3C4.4,5.8,3.9,6.6,3,7C2.5,7.2,1.7,7.3,0.7,7.3h-4.2V2H0.7z M1.5-6C3-6,4-5.6,4.6-4.7
				C5-4.2,5.2-3.6,5.2-2.8c0,1.2-0.6,2.1-1.7,2.6C2.9-0.1,2.1,0.1,1.1,0.1h-4.7V-6H1.5z"/>
		</g>
	</g>
</symbol>
<rect x="75.2" y="47.2" transform="matrix(0.7071 -0.7071 0.7071 0.7071 -32.9226 119.1048)" class="st4" width="104.2" height="104.2"/>
<line class="st5" x1="127.3" y1="99.3" x2="127.3" y2="25.6"/>
<line class="st5" x1="127.3" y1="99.3" x2="53.6" y2="99.3"/>
<line class="st5" x1="201" y1="99.3" x2="127.3" y2="99.3"/>
<line class="st5" x1="127.3" y1="173" x2="127.3" y2="99.3"/>
<use xlink:href="#A"  width="38.6" height="38.6" id="XMLID_1_" x="-19.3" y="-19.3" transform="matrix(1 0 0 -1 127.311 99.2935)" style="overflow:visible;"/>
<use xlink:href="#B"  width="38.6" height="39" x="-19.3" y="-19.5" transform="matrix(1 0 0 -1 53.1062 99.1793)" style="overflow:visible;"/>
<use xlink:href="#B"  width="38.6" height="39" x="-19.3" y="-19.5" transform="matrix(1 0 0 -1 127.311 175.2217)" style="overflow:visible;"/>
<use xlink:href="#B"  width="38.6" height="39" x="-19.3" y="-19.5" transform="matrix(1 0 0 -1 127.311 25.814)" style="overflow:visible;"/>
<use xlink:href="#B"  width="38.6" height="39" x="-19.3" y="-19.5" transform="matrix(1 0 0 -1 201.0258 99.5289)" style="overflow:visible;"/>
<g>
	<path d="M137.8,117.5c0,0.1,0,0.2-0.1,0.4c-0.1,0.2-0.2,0.3-0.2,0.4c-0.2,0.4-0.3,0.8-0.4,1.1s-0.1,0.7-0.1,1.1c0,0.3,0,0.7,0.1,1
		s0.2,0.6,0.3,1c0.1,0.2,0.2,0.4,0.3,0.6s0.2,0.4,0.2,0.4c0,0.1,0,0.1,0,0.1c0,0-0.1,0-0.1,0c-0.1,0-0.2,0-0.3-0.1
		c-0.1-0.1-0.2-0.2-0.3-0.4c-0.3-0.4-0.5-0.8-0.6-1.3c-0.1-0.4-0.2-0.9-0.2-1.4c0-0.4,0.1-0.9,0.2-1.3s0.3-0.8,0.5-1.2
		c0.2-0.2,0.3-0.4,0.4-0.6c0.1-0.1,0.2-0.2,0.3-0.2c0,0,0.1,0,0.1,0C137.8,117.4,137.8,117.5,137.8,117.5z"/>
	<path d="M140.1,117.9C140,117.9,140,117.9,140.1,117.9c-0.1,0-0.1,0-0.1,0c-0.1,0-0.1,0-0.2-0.1s-0.1-0.1-0.1-0.2
		c0-0.1,0-0.1,0.1-0.2c0,0,0.1-0.1,0.2-0.1l1.2-0.3c0,0,0.1,0,0.1,0s0.1,0,0.1,0c0,0,0.1,0,0.1,0.1c0,0,0,0.1,0,0.2v4.2h0.6
		c0.2,0,0.4,0,0.4,0.1s0.1,0.1,0.1,0.2c0,0.1,0,0.2-0.1,0.2c-0.1,0-0.1,0.1-0.2,0.1h-2.3c-0.1,0-0.2,0-0.2-0.1
		c-0.1,0-0.1-0.1-0.1-0.2c0-0.1,0-0.2,0.1-0.2s0.2-0.1,0.4-0.1h0.6v-3.8L140.1,117.9z"/>
	<path d="M145,122.3c-0.5,0-0.9-0.2-1.2-0.7c-0.3-0.5-0.4-1.1-0.4-1.9c0-0.8,0.1-1.4,0.4-1.9c0.3-0.5,0.7-0.7,1.2-0.7
		c0.5,0,0.9,0.2,1.2,0.7s0.4,1.1,0.4,1.9s-0.1,1.4-0.4,1.9S145.5,122.3,145,122.3z M145,117.6c-0.3,0-0.5,0.2-0.7,0.5
		c-0.2,0.4-0.2,0.9-0.2,1.5c0,0.6,0.1,1.2,0.2,1.5c0.2,0.4,0.4,0.5,0.7,0.5c0.3,0,0.5-0.2,0.7-0.5c0.2-0.4,0.2-0.9,0.2-1.5
		c0-0.6-0.1-1.1-0.2-1.5C145.5,117.8,145.3,117.6,145,117.6z"/>
	<path d="M148.5,121c0-0.1,0-0.1,0.1-0.2c0,0,0.1,0,0.2,0h0.9c0,0,0.1,0,0.1,0s0,0,0,0.1c0,0,0,0,0,0.1c0,0,0,0,0,0.1l-1.1,2.2
		c0,0,0,0.1-0.1,0.1s-0.1,0-0.1,0c0,0,0,0,0,0c0,0,0,0,0,0l-0.3-0.1c0,0-0.1,0-0.1-0.1c0,0,0-0.1,0-0.1c0,0,0,0,0-0.1s0,0,0,0
		L148.5,121z"/>
	<path d="M152.1,117.9C152,117.9,152,117.9,152.1,117.9c-0.1,0-0.1,0-0.1,0c-0.1,0-0.1,0-0.2-0.1s-0.1-0.1-0.1-0.2
		c0-0.1,0-0.1,0.1-0.2c0,0,0.1-0.1,0.2-0.1l1.2-0.3c0,0,0.1,0,0.1,0s0.1,0,0.1,0c0,0,0.1,0,0.1,0.1c0,0,0,0.1,0,0.2v4.2h0.6
		c0.2,0,0.4,0,0.4,0.1s0.1,0.1,0.1,0.2c0,0.1,0,0.2-0.1,0.2c-0.1,0-0.1,0.1-0.2,0.1h-2.3c-0.1,0-0.2,0-0.2-0.1
		c-0.1,0-0.1-0.1-0.1-0.2c0-0.1,0-0.2,0.1-0.2s0.2-0.1,0.4-0.1h0.6v-3.8L152.1,117.9z"/>
	<path d="M157,122.3c-0.5,0-0.9-0.2-1.2-0.7c-0.3-0.5-0.4-1.1-0.4-1.9c0-0.8,0.1-1.4,0.4-1.9c0.3-0.5,0.7-0.7,1.2-0.7
		c0.5,0,0.9,0.2,1.2,0.7s0.4,1.1,0.4,1.9s-0.1,1.4-0.4,1.9S157.5,122.3,157,122.3z M157,117.6c-0.3,0-0.5,0.2-0.7,0.5
		c-0.2,0.4-0.2,0.9-0.2,1.5c0,0.6,0.1,1.2,0.2,1.5c0.2,0.4,0.4,0.5,0.7,0.5c0.3,0,0.5-0.2,0.7-0.5c0.2-0.4,0.2-0.9,0.2-1.5
		c0-0.6-0.1-1.1-0.2-1.5C157.5,117.8,157.3,117.6,157,117.6z"/>
	<path d="M160.5,121c0-0.1,0-0.1,0.1-0.2c0,0,0.1,0,0.2,0h0.9c0,0,0.1,0,0.1,0s0,0,0,0.1c0,0,0,0,0,0.1c0,0,0,0,0,0.1l-1.1,2.2
		c0,0,0,0.1-0.1,0.1s-0.1,0-0.1,0c0,0,0,0,0,0c0,0,0,0,0,0l-0.3-0.1c0,0-0.1,0-0.1-0.1c0,0,0-0.1,0-0.1c0,0,0,0,0-0.1s0,0,0,0
		L160.5,121z"/>
	<path d="M164.1,117.9C164,117.9,164,117.9,164.1,117.9c-0.1,0-0.1,0-0.1,0c-0.1,0-0.1,0-0.2-0.1s-0.1-0.1-0.1-0.2
		c0-0.1,0-0.1,0.1-0.2c0,0,0.1-0.1,0.2-0.1l1.2-0.3c0,0,0.1,0,0.1,0s0.1,0,0.1,0c0,0,0.1,0,0.1,0.1c0,0,0,0.1,0,0.2v4.2h0.6
		c0.2,0,0.4,0,0.4,0.1s0.1,0.1,0.1,0.2c0,0.1,0,0.2-0.1,0.2c-0.1,0-0.1,0.1-0.2,0.1h-2.3c-0.1,0-0.2,0-0.2-0.1
		c-0.1,0-0.1-0.1-0.1-0.2c0-0.1,0-0.2,0.1-0.2s0.2-0.1,0.4-0.1h0.6v-3.8L164.1,117.9z"/>
	<path d="M169,122.3c-0.5,0-0.9-0.2-1.2-0.7c-0.3-0.5-0.4-1.1-0.4-1.9c0-0.8,0.1-1.4,0.4-1.9c0.3-0.5,0.7-0.7,1.2-0.7
		c0.5,0,0.9,0.2,1.2,0.7s0.4,1.1,0.4,1.9s-0.1,1.4-0.4,1.9S169.5,122.3,169,122.3z M169,117.6c-0.3,0-0.5,0.2-0.7,0.5
		c-0.2,0.4-0.2,0.9-0.2,1.5c0,0.6,0.1,1.2,0.2,1.5c0.2,0.4,0.4,0.5,0.7,0.5c0.3,0,0.5-0.2,0.7-0.5c0.2-0.4,0.2-0.9,0.2-1.5
		c0-0.6-0.1-1.1-0.2-1.5C169.5,117.8,169.3,117.6,169,117.6z"/>
	<path d="M172.2,123.5c0-0.1,0-0.2,0.1-0.3c0.1-0.2,0.2-0.3,0.2-0.4c0.2-0.4,0.3-0.8,0.4-1.1c0.1-0.3,0.1-0.7,0.1-1.1
		c0-0.3,0-0.7-0.1-1c-0.1-0.3-0.2-0.6-0.3-1c-0.1-0.2-0.2-0.4-0.3-0.6c-0.1-0.2-0.2-0.4-0.2-0.4c0-0.1,0-0.1,0-0.1c0,0,0.1,0,0.1,0
		c0.1,0,0.2,0,0.3,0.1s0.2,0.2,0.3,0.4c0.3,0.4,0.5,0.8,0.6,1.3c0.1,0.4,0.2,0.9,0.2,1.4c0,0.4-0.1,0.9-0.2,1.3
		c-0.1,0.4-0.3,0.8-0.5,1.2c-0.2,0.3-0.3,0.4-0.4,0.6s-0.2,0.2-0.3,0.2c0,0-0.1,0-0.1-0.1C172.2,123.6,172.2,123.6,172.2,123.5z"/>
</g>
<g>
	<path d="M13.1,117.5c0,0.1,0,0.2-0.1,0.4s-0.2,0.3-0.2,0.4c-0.2,0.4-0.3,0.8-0.4,1.1s-0.1,0.7-0.1,1.1c0,0.3,0,0.7,0.1,1
		s0.2,0.6,0.3,1c0.1,0.2,0.2,0.4,0.3,0.6s0.2,0.4,0.2,0.4c0,0.1,0,0.1,0,0.1s-0.1,0-0.1,0c-0.1,0-0.2,0-0.3-0.1s-0.2-0.2-0.3-0.4
		c-0.3-0.4-0.5-0.8-0.6-1.3s-0.2-0.9-0.2-1.4c0-0.4,0.1-0.9,0.2-1.3s0.3-0.8,0.5-1.2c0.2-0.2,0.3-0.4,0.4-0.6s0.2-0.2,0.3-0.2
		c0,0,0.1,0,0.1,0S13.1,117.5,13.1,117.5z"/>
	<path d="M15.4,117.9C15.4,117.9,15.3,117.9,15.4,117.9c-0.1,0-0.1,0-0.1,0c-0.1,0-0.1,0-0.2-0.1s-0.1-0.1-0.1-0.2
		c0-0.1,0-0.1,0.1-0.2s0.1-0.1,0.2-0.1l1.2-0.3c0,0,0.1,0,0.1,0s0.1,0,0.1,0c0,0,0.1,0,0.1,0.1s0,0.1,0,0.2v4.2h0.6
		c0.2,0,0.4,0,0.4,0.1s0.1,0.1,0.1,0.2c0,0.1,0,0.2-0.1,0.2s-0.1,0.1-0.2,0.1h-2.3c-0.1,0-0.2,0-0.2-0.1s-0.1-0.1-0.1-0.2
		c0-0.1,0-0.2,0.1-0.2s0.2-0.1,0.4-0.1h0.6v-3.8L15.4,117.9z"/>
	<path d="M20.3,122.3c-0.5,0-0.9-0.2-1.2-0.7s-0.4-1.1-0.4-1.9c0-0.8,0.1-1.4,0.4-1.9s0.7-0.7,1.2-0.7s0.9,0.2,1.2,0.7
		s0.4,1.1,0.4,1.9s-0.1,1.4-0.4,1.9S20.8,122.3,20.3,122.3z M20.3,117.6c-0.3,0-0.5,0.2-0.7,0.5s-0.2,0.9-0.2,1.5
		c0,0.6,0.1,1.2,0.2,1.5c0.2,0.4,0.4,0.5,0.7,0.5c0.3,0,0.5-0.2,0.7-0.5c0.2-0.4,0.2-0.9,0.2-1.5c0-0.6-0.1-1.1-0.2-1.5
		S20.6,117.6,20.3,117.6z"/>
	<path d="M23.9,121c0-0.1,0-0.1,0.1-0.2s0.1,0,0.2,0H25c0,0,0.1,0,0.1,0s0,0,0,0.1c0,0,0,0,0,0.1s0,0,0,0.1l-1.1,2.2
		c0,0,0,0.1-0.1,0.1s-0.1,0-0.1,0c0,0,0,0,0,0s0,0,0,0l-0.3-0.1c0,0-0.1,0-0.1-0.1s0-0.1,0-0.1c0,0,0,0,0-0.1s0,0,0,0L23.9,121z"/>
	<path d="M27.6,119.6c-0.3-0.1-0.4-0.3-0.6-0.5s-0.2-0.4-0.2-0.7c0-0.4,0.1-0.7,0.4-1c0.3-0.3,0.7-0.4,1.1-0.4
		c0.4,0,0.8,0.1,1.1,0.4s0.4,0.6,0.4,1c0,0.3-0.1,0.5-0.2,0.7c-0.1,0.2-0.3,0.4-0.6,0.5c0.3,0.1,0.5,0.3,0.6,0.5s0.2,0.4,0.2,0.7
		c0,0.4-0.1,0.8-0.4,1s-0.7,0.4-1.2,0.4s-0.9-0.1-1.1-0.4c-0.3-0.3-0.4-0.6-0.4-1.1c0-0.3,0.1-0.5,0.2-0.7S27.3,119.7,27.6,119.6z
		 M27.4,120.8c0,0.3,0.1,0.5,0.3,0.7s0.4,0.3,0.7,0.3c0.3,0,0.5-0.1,0.7-0.2s0.3-0.4,0.3-0.7c0-0.3-0.1-0.5-0.3-0.7
		s-0.4-0.3-0.7-0.3c-0.3,0-0.5,0.1-0.7,0.2S27.4,120.5,27.4,120.8z M27.4,118.5c0,0.3,0.1,0.5,0.3,0.6c0.2,0.2,0.4,0.2,0.7,0.2
		c0.3,0,0.5-0.1,0.7-0.2c0.2-0.2,0.3-0.4,0.3-0.6c0-0.3-0.1-0.5-0.3-0.6s-0.4-0.2-0.7-0.2s-0.5,0.1-0.7,0.2S27.4,118.2,27.4,118.5z"
		/>
	<path d="M31.9,121c0-0.1,0-0.1,0.1-0.2s0.1,0,0.2,0H33c0,0,0.1,0,0.1,0s0,0,0,0.1c0,0,0,0,0,0.1s0,0,0,0.1l-1.1,2.2
		c0,0,0,0.1-0.1,0.1s-0.1,0-0.1,0c0,0,0,0,0,0s0,0,0,0l-0.3-0.1c0,0-0.1,0-0.1-0.1s0-0.1,0-0.1c0,0,0,0,0-0.1s0,0,0,0L31.9,121z"/>
	<path d="M35.4,117.9C35.4,117.9,35.3,117.9,35.4,117.9c-0.1,0-0.1,0-0.1,0c-0.1,0-0.1,0-0.2-0.1s-0.1-0.1-0.1-0.2
		c0-0.1,0-0.1,0.1-0.2s0.1-0.1,0.2-0.1l1.2-0.3c0,0,0.1,0,0.1,0s0.1,0,0.1,0c0,0,0.1,0,0.1,0.1s0,0.1,0,0.2v4.2h0.6
		c0.2,0,0.4,0,0.4,0.1s0.1,0.1,0.1,0.2c0,0.1,0,0.2-0.1,0.2s-0.1,0.1-0.2,0.1h-2.3c-0.1,0-0.2,0-0.2-0.1s-0.1-0.1-0.1-0.2
		c0-0.1,0-0.2,0.1-0.2s0.2-0.1,0.4-0.1h0.6v-3.8L35.4,117.9z"/>
	<path d="M40.3,122.3c-0.5,0-0.9-0.2-1.2-0.7s-0.4-1.1-0.4-1.9c0-0.8,0.1-1.4,0.4-1.9s0.7-0.7,1.2-0.7s0.9,0.2,1.2,0.7
		s0.4,1.1,0.4,1.9s-0.1,1.4-0.4,1.9S40.8,122.3,40.3,122.3z M40.3,117.6c-0.3,0-0.5,0.2-0.7,0.5s-0.2,0.9-0.2,1.5
		c0,0.6,0.1,1.2,0.2,1.5c0.2,0.4,0.4,0.5,0.7,0.5c0.3,0,0.5-0.2,0.7-0.5c0.2-0.4,0.2-0.9,0.2-1.5c0-0.6-0.1-1.1-0.2-1.5
		S40.6,117.6,40.3,117.6z"/>
	<path d="M43.5,123.5c0-0.1,0-0.2,0.1-0.3s0.2-0.3,0.2-0.4c0.2-0.4,0.3-0.8,0.4-1.1s0.1-0.7,0.1-1.1c0-0.3,0-0.7-0.1-1
		s-0.2-0.6-0.3-1c-0.1-0.2-0.2-0.4-0.3-0.6s-0.2-0.4-0.2-0.4c0-0.1,0-0.1,0-0.1s0.1,0,0.1,0c0.1,0,0.2,0,0.3,0.1s0.2,0.2,0.3,0.4
		c0.3,0.4,0.5,0.8,0.6,1.3s0.2,0.9,0.2,1.4c0,0.4-0.1,0.9-0.2,1.3s-0.3,0.8-0.5,1.2c-0.2,0.3-0.3,0.4-0.4,0.6s-0.2,0.2-0.3,0.2
		c0,0-0.1,0-0.1-0.1S43.5,123.6,43.5,123.5z"/>
</g>
<g>
	<path d="M211.1,117.5c0,0.1,0,0.2-0.1,0.4c-0.1,0.2-0.2,0.3-0.2,0.4c-0.2,0.4-0.3,0.8-0.4,1.1s-0.1,0.7-0.1,1.1c0,0.3,0,0.7,0.1,1
		s0.2,0.6,0.3,1c0.1,0.2,0.2,0.4,0.3,0.6s0.2,0.4,0.2,0.4c0,0.1,0,0.1,0,0.1c0,0-0.1,0-0.1,0c-0.1,0-0.2,0-0.3-0.1
		c-0.1-0.1-0.2-0.2-0.3-0.4c-0.3-0.4-0.5-0.8-0.6-1.3c-0.1-0.4-0.2-0.9-0.2-1.4c0-0.4,0.1-0.9,0.2-1.3s0.3-0.8,0.5-1.2
		c0.2-0.2,0.3-0.4,0.4-0.6c0.1-0.1,0.2-0.2,0.3-0.2c0,0,0.1,0,0.1,0C211.1,117.4,211.1,117.5,211.1,117.5z"/>
	<path d="M213.4,117.9C213.4,117.9,213.4,117.9,213.4,117.9c-0.1,0-0.1,0-0.1,0c-0.1,0-0.1,0-0.2-0.1s-0.1-0.1-0.1-0.2
		c0-0.1,0-0.1,0.1-0.2c0,0,0.1-0.1,0.2-0.1l1.2-0.3c0,0,0.1,0,0.1,0s0.1,0,0.1,0c0,0,0.1,0,0.1,0.1c0,0,0,0.1,0,0.2v4.2h0.6
		c0.2,0,0.4,0,0.4,0.1s0.1,0.1,0.1,0.2c0,0.1,0,0.2-0.1,0.2c-0.1,0-0.1,0.1-0.2,0.1h-2.3c-0.1,0-0.2,0-0.2-0.1
		c-0.1,0-0.1-0.1-0.1-0.2c0-0.1,0-0.2,0.1-0.2s0.2-0.1,0.4-0.1h0.6v-3.8L213.4,117.9z"/>
	<path d="M218.3,122.3c-0.5,0-0.9-0.2-1.2-0.7c-0.3-0.5-0.4-1.1-0.4-1.9c0-0.8,0.1-1.4,0.4-1.9c0.3-0.5,0.7-0.7,1.2-0.7
		c0.5,0,0.9,0.2,1.2,0.7s0.4,1.1,0.4,1.9s-0.1,1.4-0.4,1.9S218.8,122.3,218.3,122.3z M218.3,117.6c-0.3,0-0.5,0.2-0.7,0.5
		c-0.2,0.4-0.2,0.9-0.2,1.5c0,0.6,0.1,1.2,0.2,1.5c0.2,0.4,0.4,0.5,0.7,0.5c0.3,0,0.5-0.2,0.7-0.5c0.2-0.4,0.2-0.9,0.2-1.5
		c0-0.6-0.1-1.1-0.2-1.5C218.9,117.8,218.6,117.6,218.3,117.6z"/>
	<path d="M221.9,121c0-0.1,0-0.1,0.1-0.2c0,0,0.1,0,0.2,0h0.9c0,0,0.1,0,0.1,0s0,0,0,0.1c0,0,0,0,0,0.1c0,0,0,0,0,0.1l-1.1,2.2
		c0,0,0,0.1-0.1,0.1s-0.1,0-0.1,0c0,0,0,0,0,0c0,0,0,0,0,0l-0.3-0.1c0,0-0.1,0-0.1-0.1c0,0,0-0.1,0-0.1c0,0,0,0,0-0.1s0,0,0,0
		L221.9,121z"/>
	<path d="M225.4,117.9C225.4,117.9,225.4,117.9,225.4,117.9c-0.1,0-0.1,0-0.1,0c-0.1,0-0.1,0-0.2-0.1s-0.1-0.1-0.1-0.2
		c0-0.1,0-0.1,0.1-0.2c0,0,0.1-0.1,0.2-0.1l1.2-0.3c0,0,0.1,0,0.1,0s0.1,0,0.1,0c0,0,0.1,0,0.1,0.1c0,0,0,0.1,0,0.2v4.2h0.6
		c0.2,0,0.4,0,0.4,0.1s0.1,0.1,0.1,0.2c0,0.1,0,0.2-0.1,0.2c-0.1,0-0.1,0.1-0.2,0.1h-2.3c-0.1,0-0.2,0-0.2-0.1
		c-0.1,0-0.1-0.1-0.1-0.2c0-0.1,0-0.2,0.1-0.2s0.2-0.1,0.4-0.1h0.6v-3.8L225.4,117.9z"/>
	<path d="M229,122.1c-0.1,0-0.2,0-0.3-0.1s-0.1-0.1-0.1-0.3c0-0.2,0.2-0.5,0.8-1l0.1-0.1c0.1-0.1,0.2-0.2,0.3-0.3
		c0.9-0.8,1.4-1.5,1.4-1.9c0-0.3-0.1-0.5-0.2-0.7c-0.2-0.2-0.4-0.3-0.6-0.3c-0.2,0-0.3,0-0.5,0.1c-0.2,0.1-0.3,0.2-0.4,0.3
		c0,0,0,0.1-0.1,0.1c-0.1,0.2-0.2,0.3-0.3,0.3c-0.1,0-0.2,0-0.2-0.1s-0.1-0.2-0.1-0.3c0-0.1,0-0.2,0-0.2c0,0,0.1-0.1,0.1-0.1
		c0.2-0.2,0.4-0.3,0.6-0.4s0.5-0.1,0.8-0.1c0.4,0,0.8,0.1,1.1,0.4c0.3,0.3,0.4,0.6,0.4,1c0,0.5-0.4,1.2-1.3,2
		c-0.2,0.2-0.4,0.4-0.5,0.5l-0.5,0.5h1.8c0-0.1,0-0.2,0.1-0.3s0.1-0.1,0.2-0.1s0.2,0,0.2,0.1c0,0.1,0.1,0.1,0.1,0.2c0,0,0,0,0,0
		c0,0,0,0,0,0l0,0.3c0,0.1,0,0.1-0.1,0.2s-0.1,0.1-0.2,0.1H229z"/>
	<path d="M233.9,121c0-0.1,0-0.1,0.1-0.2c0,0,0.1,0,0.2,0h0.9c0,0,0.1,0,0.1,0s0,0,0,0.1c0,0,0,0,0,0.1c0,0,0,0,0,0.1l-1.1,2.2
		c0,0,0,0.1-0.1,0.1s-0.1,0-0.1,0c0,0,0,0,0,0c0,0,0,0,0,0l-0.3-0.1c0,0-0.1,0-0.1-0.1c0,0,0-0.1,0-0.1c0,0,0,0,0-0.1s0,0,0,0
		L233.9,121z"/>
	<path d="M237.4,117.9C237.4,117.9,237.4,117.9,237.4,117.9c-0.1,0-0.1,0-0.1,0c-0.1,0-0.1,0-0.2-0.1s-0.1-0.1-0.1-0.2
		c0-0.1,0-0.1,0.1-0.2c0,0,0.1-0.1,0.2-0.1l1.2-0.3c0,0,0.1,0,0.1,0s0.1,0,0.1,0c0,0,0.1,0,0.1,0.1c0,0,0,0.1,0,0.2v4.2h0.6
		c0.2,0,0.4,0,0.4,0.1s0.1,0.1,0.1,0.2c0,0.1,0,0.2-0.1,0.2c-0.1,0-0.1,0.1-0.2,0.1h-2.3c-0.1,0-0.2,0-0.2-0.1
		c-0.1,0-0.1-0.1-0.1-0.2c0-0.1,0-0.2,0.1-0.2s0.2-0.1,0.4-0.1h0.6v-3.8L237.4,117.9z"/>
	<path d="M242.3,122.3c-0.5,0-0.9-0.2-1.2-0.7c-0.3-0.5-0.4-1.1-0.4-1.9c0-0.8,0.1-1.4,0.4-1.9c0.3-0.5,0.7-0.7,1.2-0.7
		c0.5,0,0.9,0.2,1.2,0.7s0.4,1.1,0.4,1.9s-0.1,1.4-0.4,1.9S242.8,122.3,242.3,122.3z M242.3,117.6c-0.3,0-0.5,0.2-0.7,0.5
		c-0.2,0.4-0.2,0.9-0.2,1.5c0,0.6,0.1,1.2,0.2,1.5c0.2,0.4,0.4,0.5,0.7,0.5c0.3,0,0.5-0.2,0.7-0.5c0.2-0.4,0.2-0.9,0.2-1.5
		c0-0.6-0.1-1.1-0.2-1.5C242.9,117.8,242.7,117.6,242.3,117.6z"/>
	<path d="M245.6,123.5c0-0.1,0-0.2,0.1-0.3c0.1-0.2,0.2-0.3,0.2-0.4c0.2-0.4,0.3-0.8,0.4-1.1c0.1-0.3,0.1-0.7,0.1-1.1
		c0-0.3,0-0.7-0.1-1c-0.1-0.3-0.2-0.6-0.3-1c-0.1-0.2-0.2-0.4-0.3-0.6c-0.1-0.2-0.2-0.4-0.2-0.4c0-0.1,0-0.1,0-0.1c0,0,0.1,0,0.1,0
		c0.1,0,0.2,0,0.3,0.1s0.2,0.2,0.3,0.4c0.3,0.4,0.5,0.8,0.6,1.3c0.1,0.4,0.2,0.9,0.2,1.4c0,0.4-0.1,0.9-0.2,1.3
		c-0.1,0.4-0.3,0.8-0.5,1.2c-0.2,0.3-0.3,0.4-0.4,0.6s-0.2,0.2-0.3,0.2c0,0-0.1,0-0.1-0.1C245.6,123.6,245.6,123.6,245.6,123.5z"/>
</g>
<g>
	<path d="M137.8,1.7c0,0.1,0,0.2-0.1,0.4c-0.1,0.2-0.2,0.3-0.2,0.4c-0.2,0.4-0.3,0.8-0.4,1.1S137,4.3,137,4.7c0,0.3,0,0.7,0.1,1
		s0.2,0.6,0.3,1c0.1,0.2,0.2,0.4,0.3,0.6s0.2,0.4,0.2,0.4c0,0.1,0,0.1,0,0.1c0,0-0.1,0-0.1,0c-0.1,0-0.2,0-0.3-0.1
		c-0.1-0.1-0.2-0.2-0.3-0.4c-0.3-0.4-0.5-0.8-0.6-1.3c-0.1-0.4-0.2-0.9-0.2-1.4c0-0.4,0.1-0.9,0.2-1.3s0.3-0.8,0.5-1.2
		c0.2-0.2,0.3-0.4,0.4-0.6c0.1-0.1,0.2-0.2,0.3-0.2c0,0,0.1,0,0.1,0C137.8,1.6,137.8,1.7,137.8,1.7z"/>
	<path d="M140.2,3.8c-0.3-0.1-0.4-0.3-0.6-0.5c-0.1-0.2-0.2-0.4-0.2-0.7c0-0.4,0.1-0.7,0.4-1c0.3-0.3,0.7-0.4,1.1-0.4
		c0.4,0,0.8,0.1,1.1,0.4c0.3,0.3,0.4,0.6,0.4,1c0,0.3-0.1,0.5-0.2,0.7c-0.1,0.2-0.3,0.4-0.6,0.5c0.3,0.1,0.5,0.3,0.6,0.5
		s0.2,0.4,0.2,0.7c0,0.4-0.1,0.8-0.4,1c-0.3,0.3-0.7,0.4-1.2,0.4c-0.5,0-0.9-0.1-1.1-0.4c-0.3-0.3-0.4-0.6-0.4-1.1
		c0-0.3,0.1-0.5,0.2-0.7S140,3.9,140.2,3.8z M140.1,5c0,0.3,0.1,0.5,0.3,0.7c0.2,0.2,0.4,0.3,0.7,0.3c0.3,0,0.5-0.1,0.7-0.2
		c0.2-0.2,0.3-0.4,0.3-0.7c0-0.3-0.1-0.5-0.3-0.7c-0.2-0.2-0.4-0.3-0.7-0.3c-0.3,0-0.5,0.1-0.7,0.2C140.1,4.5,140.1,4.7,140.1,5z
		 M140.1,2.6c0,0.3,0.1,0.5,0.3,0.6c0.2,0.2,0.4,0.2,0.7,0.2c0.3,0,0.5-0.1,0.7-0.2c0.2-0.2,0.3-0.4,0.3-0.6c0-0.3-0.1-0.5-0.3-0.6
		c-0.2-0.2-0.4-0.2-0.7-0.2c-0.3,0-0.5,0.1-0.7,0.2C140.2,2.2,140.1,2.4,140.1,2.6z"/>
	<path d="M144.5,5.2c0-0.1,0-0.1,0.1-0.2c0,0,0.1,0,0.2,0h0.9c0,0,0.1,0,0.1,0s0,0,0,0.1c0,0,0,0,0,0.1c0,0,0,0,0,0.1l-1.1,2.2
		c0,0,0,0.1-0.1,0.1s-0.1,0-0.1,0c0,0,0,0,0,0c0,0,0,0,0,0l-0.3-0.1c0,0-0.1,0-0.1-0.1c0,0,0-0.1,0-0.1c0,0,0,0,0-0.1s0,0,0,0
		L144.5,5.2z"/>
	<path d="M148.1,2.1C148,2.1,148,2.1,148.1,2.1c-0.1,0-0.1,0-0.1,0c-0.1,0-0.1,0-0.2-0.1s-0.1-0.1-0.1-0.2c0-0.1,0-0.1,0.1-0.2
		c0,0,0.1-0.1,0.2-0.1l1.2-0.3c0,0,0.1,0,0.1,0s0.1,0,0.1,0c0,0,0.1,0,0.1,0.1c0,0,0,0.1,0,0.2v4.2h0.6c0.2,0,0.4,0,0.4,0.1
		s0.1,0.1,0.1,0.2c0,0.1,0,0.2-0.1,0.2c-0.1,0-0.1,0.1-0.2,0.1h-2.3c-0.1,0-0.2,0-0.2-0.1c-0.1,0-0.1-0.1-0.1-0.2
		c0-0.1,0-0.2,0.1-0.2s0.2-0.1,0.4-0.1h0.6V1.9L148.1,2.1z"/>
	<path d="M153,6.4c-0.5,0-0.9-0.2-1.2-0.7c-0.3-0.5-0.4-1.1-0.4-1.9c0-0.8,0.1-1.4,0.4-1.9c0.3-0.5,0.7-0.7,1.2-0.7
		c0.5,0,0.9,0.2,1.2,0.7s0.4,1.1,0.4,1.9s-0.1,1.4-0.4,1.9S153.5,6.4,153,6.4z M153,1.8c-0.3,0-0.5,0.2-0.7,0.5
		c-0.2,0.4-0.2,0.9-0.2,1.5c0,0.6,0.1,1.2,0.2,1.5c0.2,0.4,0.4,0.5,0.7,0.5c0.3,0,0.5-0.2,0.7-0.5c0.2-0.4,0.2-0.9,0.2-1.5
		c0-0.6-0.1-1.1-0.2-1.5C153.5,2,153.3,1.8,153,1.8z"/>
	<path d="M156.5,5.2c0-0.1,0-0.1,0.1-0.2c0,0,0.1,0,0.2,0h0.9c0,0,0.1,0,0.1,0s0,0,0,0.1c0,0,0,0,0,0.1c0,0,0,0,0,0.1l-1.1,2.2
		c0,0,0,0.1-0.1,0.1s-0.1,0-0.1,0c0,0,0,0,0,0c0,0,0,0,0,0l-0.3-0.1c0,0-0.1,0-0.1-0.1c0,0,0-0.1,0-0.1c0,0,0,0,0-0.1s0,0,0,0
		L156.5,5.2z"/>
	<path d="M160.1,2.1C160,2.1,160,2.1,160.1,2.1c-0.1,0-0.1,0-0.1,0c-0.1,0-0.1,0-0.2-0.1s-0.1-0.1-0.1-0.2c0-0.1,0-0.1,0.1-0.2
		c0,0,0.1-0.1,0.2-0.1l1.2-0.3c0,0,0.1,0,0.1,0s0.1,0,0.1,0c0,0,0.1,0,0.1,0.1c0,0,0,0.1,0,0.2v4.2h0.6c0.2,0,0.4,0,0.4,0.1
		s0.1,0.1,0.1,0.2c0,0.1,0,0.2-0.1,0.2c-0.1,0-0.1,0.1-0.2,0.1h-2.3c-0.1,0-0.2,0-0.2-0.1c-0.1,0-0.1-0.1-0.1-0.2
		c0-0.1,0-0.2,0.1-0.2s0.2-0.1,0.4-0.1h0.6V1.9L160.1,2.1z"/>
	<path d="M165,6.4c-0.5,0-0.9-0.2-1.2-0.7c-0.3-0.5-0.4-1.1-0.4-1.9c0-0.8,0.1-1.4,0.4-1.9c0.3-0.5,0.7-0.7,1.2-0.7
		c0.5,0,0.9,0.2,1.2,0.7s0.4,1.1,0.4,1.9s-0.1,1.4-0.4,1.9S165.5,6.4,165,6.4z M165,1.8c-0.3,0-0.5,0.2-0.7,0.5
		c-0.2,0.4-0.2,0.9-0.2,1.5c0,0.6,0.1,1.2,0.2,1.5c0.2,0.4,0.4,0.5,0.7,0.5c0.3,0,0.5-0.2,0.7-0.5c0.2-0.4,0.2-0.9,0.2-1.5
		c0-0.6-0.1-1.1-0.2-1.5C165.5,2,165.3,1.8,165,1.8z"/>
	<path d="M168.2,7.7c0-0.1,0-0.2,0.1-0.3c0.1-0.2,0.2-0.3,0.2-0.4c0.2-0.4,0.3-0.8,0.4-1.1c0.1-0.3,0.1-0.7,0.1-1.1
		c0-0.3,0-0.7-0.1-1c-0.1-0.3-0.2-0.6-0.3-1c-0.1-0.2-0.2-0.4-0.3-0.6c-0.1-0.2-0.2-0.4-0.2-0.4c0-0.1,0-0.1,0-0.1c0,0,0.1,0,0.1,0
		c0.1,0,0.2,0,0.3,0.1s0.2,0.2,0.3,0.4c0.3,0.4,0.5,0.8,0.6,1.3c0.1,0.4,0.2,0.9,0.2,1.4c0,0.4-0.1,0.9-0.2,1.3
		c-0.1,0.4-0.3,0.8-0.5,1.2c-0.2,0.3-0.3,0.4-0.4,0.6s-0.2,0.2-0.3,0.2c0,0-0.1,0-0.1-0.1C168.2,7.8,168.2,7.8,168.2,7.7z"/>
</g>
<g>
	<path d="M137.8,192.9c0,0.1,0,0.2-0.1,0.4c-0.1,0.2-0.2,0.3-0.2,0.4c-0.2,0.4-0.3,0.8-0.4,1.1s-0.1,0.7-0.1,1.1c0,0.3,0,0.7,0.1,1
		s0.2,0.6,0.3,1c0.1,0.2,0.2,0.4,0.3,0.6s0.2,0.4,0.2,0.4c0,0.1,0,0.1,0,0.1c0,0-0.1,0-0.1,0c-0.1,0-0.2,0-0.3-0.1
		c-0.1-0.1-0.2-0.2-0.3-0.4c-0.3-0.4-0.5-0.8-0.6-1.3c-0.1-0.4-0.2-0.9-0.2-1.4c0-0.4,0.1-0.9,0.2-1.3s0.3-0.8,0.5-1.2
		c0.2-0.2,0.3-0.4,0.4-0.6c0.1-0.1,0.2-0.2,0.3-0.2c0,0,0.1,0,0.1,0C137.8,192.8,137.8,192.9,137.8,192.9z"/>
	<path d="M140.1,193.3C140,193.3,140,193.3,140.1,193.3c-0.1,0-0.1,0-0.1,0c-0.1,0-0.1,0-0.2-0.1s-0.1-0.1-0.1-0.2
		c0-0.1,0-0.1,0.1-0.2c0,0,0.1-0.1,0.2-0.1l1.2-0.3c0,0,0.1,0,0.1,0s0.1,0,0.1,0c0,0,0.1,0,0.1,0.1c0,0,0,0.1,0,0.2v4.2h0.6
		c0.2,0,0.4,0,0.4,0.1s0.1,0.1,0.1,0.2c0,0.1,0,0.2-0.1,0.2c-0.1,0-0.1,0.1-0.2,0.1h-2.3c-0.1,0-0.2,0-0.2-0.1
		c-0.1,0-0.1-0.1-0.1-0.2c0-0.1,0-0.2,0.1-0.2s0.2-0.1,0.4-0.1h0.6v-3.8L140.1,193.3z"/>
	<path d="M143.6,197.5c-0.1,0-0.2,0-0.3-0.1s-0.1-0.1-0.1-0.3c0-0.2,0.2-0.5,0.8-1l0.1-0.1c0.1-0.1,0.2-0.2,0.3-0.3
		c0.9-0.8,1.4-1.5,1.4-1.9c0-0.3-0.1-0.5-0.2-0.7c-0.2-0.2-0.4-0.3-0.6-0.3c-0.2,0-0.3,0-0.5,0.1c-0.1,0.1-0.3,0.2-0.4,0.3
		c0,0,0,0.1-0.1,0.1c-0.1,0.2-0.2,0.3-0.3,0.3c-0.1,0-0.2,0-0.2-0.1s-0.1-0.2-0.1-0.3c0-0.1,0-0.2,0-0.2c0,0,0.1-0.1,0.1-0.1
		c0.2-0.2,0.4-0.3,0.6-0.4s0.5-0.1,0.8-0.1c0.4,0,0.8,0.1,1.1,0.4c0.3,0.3,0.4,0.6,0.4,1c0,0.5-0.4,1.2-1.3,2
		c-0.2,0.2-0.4,0.4-0.5,0.5l-0.5,0.5h1.8c0-0.1,0-0.2,0.1-0.3s0.1-0.1,0.2-0.1s0.2,0,0.2,0.1c0,0.1,0.1,0.1,0.1,0.2c0,0,0,0,0,0
		c0,0,0,0,0,0l0,0.3c0,0.1,0,0.1-0.1,0.2s-0.1,0.1-0.2,0.1H143.6z"/>
	<path d="M148.5,196.4c0-0.1,0-0.1,0.1-0.2c0,0,0.1,0,0.2,0h0.9c0,0,0.1,0,0.1,0s0,0,0,0.1c0,0,0,0,0,0.1c0,0,0,0,0,0.1l-1.1,2.2
		c0,0,0,0.1-0.1,0.1s-0.1,0-0.1,0c0,0,0,0,0,0c0,0,0,0,0,0l-0.3-0.1c0,0-0.1,0-0.1-0.1c0,0,0-0.1,0-0.1c0,0,0,0,0-0.1s0,0,0,0
		L148.5,196.4z"/>
	<path d="M152.1,193.3C152,193.3,152,193.3,152.1,193.3c-0.1,0-0.1,0-0.1,0c-0.1,0-0.1,0-0.2-0.1s-0.1-0.1-0.1-0.2
		c0-0.1,0-0.1,0.1-0.2c0,0,0.1-0.1,0.2-0.1l1.2-0.3c0,0,0.1,0,0.1,0s0.1,0,0.1,0c0,0,0.1,0,0.1,0.1c0,0,0,0.1,0,0.2v4.2h0.6
		c0.2,0,0.4,0,0.4,0.1s0.1,0.1,0.1,0.2c0,0.1,0,0.2-0.1,0.2c-0.1,0-0.1,0.1-0.2,0.1h-2.3c-0.1,0-0.2,0-0.2-0.1
		c-0.1,0-0.1-0.1-0.1-0.2c0-0.1,0-0.2,0.1-0.2s0.2-0.1,0.4-0.1h0.6v-3.8L152.1,193.3z"/>
	<path d="M157,197.6c-0.5,0-0.9-0.2-1.2-0.7c-0.3-0.5-0.4-1.1-0.4-1.9c0-0.8,0.1-1.4,0.4-1.9c0.3-0.5,0.7-0.7,1.2-0.7
		c0.5,0,0.9,0.2,1.2,0.7s0.4,1.1,0.4,1.9s-0.1,1.4-0.4,1.9S157.5,197.6,157,197.6z M157,193c-0.3,0-0.5,0.2-0.7,0.5
		c-0.2,0.4-0.2,0.9-0.2,1.5c0,0.6,0.1,1.2,0.2,1.5c0.2,0.4,0.4,0.5,0.7,0.5c0.3,0,0.5-0.2,0.7-0.5c0.2-0.4,0.2-0.9,0.2-1.5
		c0-0.6-0.1-1.1-0.2-1.5C157.5,193.2,157.3,193,157,193z"/>
	<path d="M160.5,196.4c0-0.1,0-0.1,0.1-0.2c0,0,0.1,0,0.2,0h0.9c0,0,0.1,0,0.1,0s0,0,0,0.1c0,0,0,0,0,0.1c0,0,0,0,0,0.1l-1.1,2.2
		c0,0,0,0.1-0.1,0.1s-0.1,0-0.1,0c0,0,0,0,0,0c0,0,0,0,0,0l-0.3-0.1c0,0-0.1,0-0.1-0.1c0,0,0-0.1,0-0.1c0,0,0,0,0-0.1s0,0,0,0
		L160.5,196.4z"/>
	<path d="M164.1,193.3C164,193.3,164,193.3,164.1,193.3c-0.1,0-0.1,0-0.1,0c-0.1,0-0.1,0-0.2-0.1s-0.1-0.1-0.1-0.2
		c0-0.1,0-0.1,0.1-0.2c0,0,0.1-0.1,0.2-0.1l1.2-0.3c0,0,0.1,0,0.1,0s0.1,0,0.1,0c0,0,0.1,0,0.1,0.1c0,0,0,0.1,0,0.2v4.2h0.6
		c0.2,0,0.4,0,0.4,0.1s0.1,0.1,0.1,0.2c0,0.1,0,0.2-0.1,0.2c-0.1,0-0.1,0.1-0.2,0.1h-2.3c-0.1,0-0.2,0-0.2-0.1
		c-0.1,0-0.1-0.1-0.1-0.2c0-0.1,0-0.2,0.1-0.2s0.2-0.1,0.4-0.1h0.6v-3.8L164.1,193.3z"/>
	<path d="M169,197.6c-0.5,0-0.9-0.2-1.2-0.7c-0.3-0.5-0.4-1.1-0.4-1.9c0-0.8,0.1-1.4,0.4-1.9c0.3-0.5,0.7-0.7,1.2-0.7
		c0.5,0,0.9,0.2,1.2,0.7s0.4,1.1,0.4,1.9s-0.1,1.4-0.4,1.9S169.5,197.6,169,197.6z M169,193c-0.3,0-0.5,0.2-0.7,0.5
		c-0.2,0.4-0.2,0.9-0.2,1.5c0,0.6,0.1,1.2,0.2,1.5c0.2,0.4,0.4,0.5,0.7,0.5c0.3,0,0.5-0.2,0.7-0.5c0.2-0.4,0.2-0.9,0.2-1.5
		c0-0.6-0.1-1.1-0.2-1.5C169.5,193.2,169.3,193,169,193z"/>
	<path d="M172.2,198.9c0-0.1,0-0.2,0.1-0.3c0.1-0.2,0.2-0.3,0.2-0.4c0.2-0.4,0.3-0.8,0.4-1.1c0.1-0.3,0.1-0.7,0.1-1.1
		c0-0.3,0-0.7-0.1-1c-0.1-0.3-0.2-0.6-0.3-1c-0.1-0.2-0.2-0.4-0.3-0.6c-0.1-0.2-0.2-0.4-0.2-0.4c0-0.1,0-0.1,0-0.1c0,0,0.1,0,0.1,0
		c0.1,0,0.2,0,0.3,0.1s0.2,0.2,0.3,0.4c0.3,0.4,0.5,0.8,0.6,1.3c0.1,0.4,0.2,0.9,0.2,1.4c0,0.4-0.1,0.9-0.2,1.3
		c-0.1,0.4-0.3,0.8-0.5,1.2c-0.2,0.3-0.3,0.4-0.4,0.6s-0.2,0.2-0.3,0.2c0,0-0.1,0-0.1-0.1C172.2,199,172.2,199,172.2,198.9z"/>
</g>
<g>
	<path class="st6" d="M147.9,89.4h0.7v5.7h-0.7V89.4z"/>
	<path class="st6" d="M152.1,91.1c0.3,0.1,0.5,0.3,0.6,0.5c0.1,0.2,0.2,0.5,0.3,0.7c0,0.2,0.1,0.5,0.1,0.9h-3c0,0.4,0.1,0.8,0.3,1
		c0.2,0.3,0.5,0.4,0.9,0.4c0.4,0,0.7-0.1,0.9-0.4c0.1-0.1,0.2-0.3,0.3-0.5h0.7c0,0.2-0.1,0.3-0.2,0.5c-0.1,0.2-0.2,0.3-0.3,0.5
		c-0.2,0.2-0.5,0.3-0.8,0.4c-0.2,0-0.4,0.1-0.6,0.1c-0.5,0-1-0.2-1.3-0.6c-0.4-0.4-0.5-0.9-0.5-1.6c0-0.7,0.2-1.2,0.5-1.6
		s0.8-0.6,1.4-0.6C151.5,90.9,151.8,90.9,152.1,91.1z M152.3,92.7c0-0.3-0.1-0.5-0.2-0.7c-0.2-0.3-0.5-0.5-1-0.5
		c-0.3,0-0.6,0.1-0.8,0.3s-0.3,0.5-0.3,0.9H152.3z"/>
	<path class="st6" d="M153.7,90.9h0.7v0.6c0.2-0.2,0.4-0.4,0.6-0.5c0.2-0.1,0.5-0.2,0.7-0.2c0.6,0,1,0.2,1.2,0.6
		c0.1,0.2,0.2,0.6,0.2,1v2.7h-0.7v-2.6c0-0.3,0-0.5-0.1-0.6c-0.1-0.3-0.4-0.4-0.7-0.4c-0.2,0-0.3,0-0.4,0.1
		c-0.2,0.1-0.4,0.2-0.5,0.3c-0.1,0.1-0.2,0.3-0.2,0.4s-0.1,0.4-0.1,0.6v2.2h-0.7V90.9z"/>
	<path class="st6" d="M160.3,91.1c0.1,0.1,0.3,0.2,0.4,0.4V91h0.6v3.8c0,0.5-0.1,1-0.2,1.3c-0.3,0.6-0.8,0.9-1.6,0.9
		c-0.4,0-0.8-0.1-1.1-0.3c-0.3-0.2-0.5-0.5-0.5-0.9h0.7c0,0.2,0.1,0.3,0.2,0.4c0.2,0.2,0.4,0.2,0.7,0.2c0.5,0,0.9-0.2,1.1-0.6
		c0.1-0.2,0.1-0.6,0.1-1.2c-0.1,0.2-0.3,0.4-0.5,0.5s-0.5,0.2-0.8,0.2c-0.5,0-0.8-0.2-1.2-0.5c-0.3-0.3-0.5-0.9-0.5-1.6
		c0-0.7,0.2-1.2,0.5-1.6s0.8-0.6,1.2-0.6C159.8,90.9,160.1,91,160.3,91.1z M160.4,91.9c-0.2-0.2-0.5-0.4-0.8-0.4
		c-0.5,0-0.8,0.2-1,0.7c-0.1,0.2-0.1,0.6-0.1,1c0,0.5,0.1,0.8,0.3,1.1s0.4,0.4,0.8,0.4c0.5,0,0.9-0.2,1.1-0.7
		c0.1-0.3,0.2-0.6,0.2-0.9C160.7,92.5,160.6,92.1,160.4,91.9z"/>
	<path class="st6" d="M162.4,89.8h0.7v1.2h0.7v0.6h-0.7v2.7c0,0.1,0,0.2,0.1,0.3c0.1,0,0.1,0,0.3,0c0,0,0.1,0,0.1,0c0,0,0.1,0,0.1,0
		v0.6c-0.1,0-0.2,0-0.3,0.1c-0.1,0-0.2,0-0.3,0c-0.3,0-0.6-0.1-0.7-0.3s-0.2-0.4-0.2-0.7v-2.8h-0.6v-0.6h0.6V89.8z"/>
	<path class="st6" d="M164.3,89.4h0.7v2.1c0.2-0.2,0.3-0.4,0.4-0.4c0.2-0.1,0.5-0.2,0.8-0.2c0.6,0,1,0.2,1.2,0.6
		c0.1,0.2,0.2,0.6,0.2,1v2.7h-0.7v-2.6c0-0.3,0-0.5-0.1-0.7c-0.1-0.2-0.4-0.3-0.7-0.3c-0.3,0-0.6,0.1-0.8,0.3
		c-0.2,0.2-0.4,0.6-0.4,1.1v2.2h-0.7V89.4z"/>
	<path class="st6" d="M174.4,91.9v0.7h-4.1v-0.7H174.4z M174.4,93.6v0.7h-4.1v-0.7H174.4z"/>
	<path class="st6" d="M177.1,93.9c0.2-0.4,0.5-0.7,1-1l0.8-0.4c0.3-0.2,0.6-0.4,0.7-0.5c0.2-0.2,0.3-0.5,0.3-0.7
		c0-0.3-0.1-0.6-0.3-0.8s-0.5-0.3-0.8-0.3c-0.5,0-0.8,0.2-1,0.5c-0.1,0.2-0.2,0.5-0.2,0.8h-0.7c0-0.5,0.1-0.9,0.3-1.2
		c0.3-0.5,0.8-0.8,1.6-0.8c0.6,0,1.1,0.2,1.4,0.5c0.3,0.3,0.4,0.7,0.4,1.2c0,0.4-0.2,0.8-0.5,1.1c-0.2,0.2-0.5,0.4-1,0.7l-0.5,0.3
		c-0.3,0.1-0.5,0.3-0.6,0.4c-0.3,0.2-0.4,0.5-0.5,0.8h3.1v0.7h-3.8C176.8,94.6,176.9,94.2,177.1,93.9z"/>
</g>
<g>
	<path class="st3" d="M147.9,34.1l0.5,0.5l-4.1,4.1l-0.5-0.5L147.9,34.1z"/>
	<path class="st3" d="M149.7,38.2c0.1,0.3,0.1,0.6,0.1,0.8c-0.1,0.2-0.2,0.5-0.3,0.7c-0.1,0.2-0.3,0.4-0.6,0.7l-2.2-2.2
		c-0.3,0.3-0.5,0.6-0.5,0.9c-0.1,0.3,0.1,0.6,0.3,0.9c0.3,0.3,0.5,0.4,0.9,0.4c0.2,0,0.4-0.1,0.5-0.2l0.5,0.5
		c-0.1,0.1-0.3,0.2-0.5,0.2c-0.2,0.1-0.4,0.1-0.6,0.1c-0.3,0-0.6-0.1-0.9-0.3c-0.1-0.1-0.3-0.2-0.4-0.4c-0.4-0.4-0.5-0.8-0.5-1.3
		c0-0.5,0.3-1,0.7-1.5c0.5-0.5,1-0.7,1.5-0.8c0.6,0,1,0.1,1.5,0.6C149.4,37.7,149.6,37.9,149.7,38.2z M148.7,39.6
		c0.2-0.2,0.3-0.5,0.4-0.7c0.1-0.4,0-0.7-0.3-1c-0.2-0.2-0.5-0.3-0.8-0.3c-0.3,0-0.6,0.1-0.9,0.4L148.7,39.6z"/>
	<path class="st3" d="M150.9,39.3l0.5,0.5l-0.4,0.4c0.3,0,0.6,0,0.8,0.1c0.2,0.1,0.4,0.2,0.6,0.4c0.4,0.4,0.6,0.8,0.4,1.3
		c-0.1,0.2-0.3,0.5-0.6,0.8l-1.9,1.9l-0.5-0.5l1.9-1.9c0.2-0.2,0.3-0.4,0.4-0.5c0.1-0.3,0-0.5-0.2-0.8c-0.1-0.1-0.2-0.2-0.3-0.3
		c-0.2-0.1-0.4-0.1-0.6-0.1c-0.2,0-0.3,0.1-0.5,0.1c-0.1,0.1-0.3,0.2-0.5,0.4l-1.5,1.5l-0.5-0.5L150.9,39.3z"/>
	<path class="st3" d="M155.5,44.1c0,0.2,0,0.3,0,0.6l0.4-0.4l0.5,0.5l-2.7,2.7c-0.4,0.4-0.7,0.6-1.1,0.7c-0.6,0.2-1.2,0-1.8-0.6
		c-0.3-0.3-0.5-0.7-0.6-1s0-0.7,0.3-1l0.5,0.5c-0.1,0.2-0.2,0.3-0.2,0.4c0,0.2,0.1,0.5,0.4,0.7c0.4,0.4,0.8,0.5,1.1,0.3
		c0.2-0.1,0.5-0.3,0.9-0.8c-0.2,0.1-0.5,0-0.7,0c-0.2-0.1-0.4-0.2-0.7-0.4c-0.3-0.3-0.5-0.7-0.5-1.2s0.2-1,0.8-1.5
		c0.5-0.5,1-0.8,1.5-0.8c0.5,0,0.9,0.1,1.3,0.5C155.3,43.6,155.4,43.8,155.5,44.1z M155,44.7c0-0.3-0.1-0.6-0.3-0.8
		c-0.3-0.3-0.8-0.4-1.2-0.2c-0.2,0.1-0.5,0.3-0.8,0.6c-0.3,0.3-0.5,0.7-0.6,1c0,0.3,0.1,0.6,0.3,0.8c0.4,0.4,0.8,0.4,1.2,0.3
		c0.3-0.1,0.5-0.3,0.8-0.5C154.8,45.4,155,45,155,44.7z"/>
	<path class="st3" d="M157.9,44.6l0.5,0.5l-0.8,0.8l0.5,0.5l-0.4,0.4l-0.5-0.5l-1.9,1.9c-0.1,0.1-0.1,0.2-0.1,0.3
		c0,0.1,0.1,0.1,0.2,0.2c0,0,0.1,0,0.1,0.1c0,0,0.1,0.1,0.1,0.1l-0.4,0.4c-0.1,0-0.1-0.1-0.2-0.1c-0.1-0.1-0.1-0.1-0.2-0.2
		c-0.2-0.2-0.3-0.4-0.3-0.7c0-0.2,0.1-0.4,0.3-0.6l2-2l-0.4-0.4l0.4-0.4l0.4,0.4L157.9,44.6z"/>
	<path class="st3" d="M159.5,45.7l0.5,0.5l-1.5,1.5c0.3,0,0.5,0,0.6,0c0.3,0.1,0.5,0.2,0.8,0.4c0.4,0.4,0.6,0.9,0.4,1.3
		c-0.1,0.2-0.3,0.5-0.6,0.8l-1.9,1.9l-0.5-0.5l1.9-1.9c0.2-0.2,0.3-0.4,0.4-0.6c0.1-0.3,0-0.5-0.3-0.8c-0.2-0.2-0.5-0.3-0.8-0.3
		c-0.3,0-0.7,0.2-1.1,0.6l-1.6,1.6l-0.5-0.5L159.5,45.7z"/>
	<path class="st3" d="M163.7,55.8l-0.5,0.5l-2.9-2.9l0.5-0.5L163.7,55.8z M164.9,54.7l-0.5,0.5l-2.9-2.9l0.5-0.5L164.9,54.7z"/>
	<path class="st3" d="M165.4,57.9c0.4-0.1,0.8-0.1,1.4,0l0.8,0.2c0.4,0.1,0.7,0.1,0.9,0.1c0.3,0,0.6-0.1,0.8-0.3
		c0.2-0.2,0.3-0.5,0.3-0.8c0-0.3-0.1-0.5-0.3-0.8c-0.3-0.3-0.7-0.4-1.1-0.3c-0.2,0.1-0.4,0.2-0.7,0.5l-0.5-0.5
		c0.3-0.3,0.7-0.6,1-0.7c0.6-0.2,1.2,0,1.7,0.6c0.5,0.5,0.7,0.9,0.6,1.4c0,0.5-0.2,0.8-0.5,1.1c-0.3,0.3-0.7,0.5-1.1,0.5
		c-0.3,0-0.6-0.1-1.2-0.2l-0.6-0.2c-0.3-0.1-0.5-0.1-0.7-0.1c-0.3,0-0.6,0-0.9,0.2l2.2,2.2l-0.5,0.5l-2.7-2.7
		C164.6,58.2,165,58,165.4,57.9z"/>
	<path class="st3" d="M168.5,63l1.7-3.4l-0.8-0.2l0.1-0.4l1.5,0.4l-1.5,3.1l6.2-3.1l0.4,0.4l-7.2,3.5L168.5,63z"/>
	<path class="st3" d="M171.3,63.9c0.4-0.1,0.8-0.1,1.4,0l0.8,0.2c0.4,0.1,0.7,0.1,0.9,0.1c0.3,0,0.6-0.1,0.8-0.3
		c0.2-0.2,0.3-0.5,0.3-0.8c0-0.3-0.1-0.5-0.3-0.8c-0.3-0.3-0.7-0.4-1.1-0.3c-0.2,0.1-0.4,0.2-0.7,0.5l-0.5-0.5
		c0.4-0.3,0.7-0.6,1-0.7c0.6-0.2,1.2,0,1.7,0.6c0.5,0.5,0.7,0.9,0.6,1.4s-0.2,0.8-0.5,1.1c-0.3,0.3-0.7,0.5-1.1,0.5
		c-0.3,0-0.6-0.1-1.2-0.2l-0.6-0.2c-0.3-0.1-0.5-0.1-0.7-0.1c-0.3,0-0.6,0-0.9,0.2l2.2,2.2l-0.5,0.5l-2.7-2.7
		C170.6,64.2,171,64,171.3,63.9z"/>
</g>
<g>
	<g>
		<line class="st7" x1="11.7" y1="10.9" x2="60.3" y2="10.9"/>
		<g>
			<polygon class="st8" points="56.9,15.4 58.8,10.9 56.9,6.5 67.5,10.9 			"/>
		</g>
	</g>
</g>
<g>
	<g>
		<line class="st9" x1="11.7" y1="59.5" x2="11.7" y2="10.9"/>
		<g>
			<polygon class="st10" points="16.2,56.1 11.7,58 7.3,56.1 11.7,66.7 			"/>
		</g>
	</g>
</g>
<circle class="st0" cx="11.7" cy="10.9" r="3.1"/>
<g>
	<path class="st10" d="M18.6,48.9h1.4l1,2.2l1.9-2.2l1.3,0l-2.8,3l1.5,3.2h-1.3l-1.1-2.4l-2,2.4h-1.3l2.9-3.2L18.6,48.9z"/>
</g>
<g>
	<path class="st8" d="M54.6,16.1h1.2c-0.2,0.4-0.8,1.3-1.6,2.8c-0.6,1.1-1.1,2-1.5,2.6c-1,1.6-1.6,2.6-1.9,2.9s-0.8,0.5-1.4,0.5
		c-0.1,0-0.3,0-0.3,0s-0.2,0-0.3-0.1l0.2-1c0.2,0.1,0.3,0.1,0.4,0.1s0.2,0,0.2,0c0.2,0,0.3,0,0.5-0.1s0.2-0.1,0.3-0.2
		c0,0,0.1-0.2,0.3-0.5s0.3-0.5,0.4-0.6L50,16.1h1.2l0.6,5.1L54.6,16.1z"/>
</g>
<g>
</g>
<g>
</g>
<g>
</g>
<g>
</g>
<g>
</g>
<g>
</g>
<g>
</g>
<g>
</g>
<g>
</g>
<g>
</g>
<g>
</g>
<g>
</g>
<g>
</g>
</svg>
