<?xml version="1.0" encoding="utf-8"?>
<!-- Generator: Adobe Illustrator 24.0.1, SVG Export Plug-In . SVG Version: 6.00 Build 0)  -->
<svg version="1.1" id="Layer_1" xmlns="http://www.w3.org/2000/svg" xmlns:xlink="http://www.w3.org/1999/xlink" x="0px" y="0px"
	 viewBox="0 0 484 441.4" style="enable-background:new 0 0 484 441.4;" xml:space="preserve">
<style type="text/css">
	
		.st0{clip-path:url(#SVGID_2_);fill:none;stroke:#BABABA;stroke-width:8;stroke-linecap:round;stroke-linejoin:round;stroke-miterlimit:10;}
	.st1{fill:none;stroke:#000000;stroke-width:0.75;stroke-linecap:round;stroke-linejoin:round;stroke-miterlimit:10;}
	.st2{fill-rule:evenodd;clip-rule:evenodd;}
	
		.st3{clip-path:url(#SVGID_4_);fill:none;stroke:#000000;stroke-width:0.75;stroke-linecap:round;stroke-linejoin:round;stroke-miterlimit:10;stroke-dasharray:2.25,3.75;}
	.st4{clip-path:url(#SVGID_4_);fill:none;stroke:#FF0000;stroke-linecap:round;stroke-linejoin:round;stroke-miterlimit:10;}
	.st5{clip-path:url(#SVGID_4_);fill:#0000FF;}
	.st6{font-family:'Helvetica';}
	.st7{font-size:12px;}
	.st8{fill:none;stroke:#FF0000;stroke-linecap:round;stroke-linejoin:round;stroke-miterlimit:10;}
	.st9{fill:none;stroke:#BABABA;stroke-width:4;stroke-linecap:round;stroke-linejoin:round;stroke-miterlimit:10;}
	.st10{fill:#0000FF;}
</style>
<g>
	<defs>
		<rect id="SVGID_1_" x="59" y="11.9" width="414.7" height="371.5"/>
	</defs>
	<clipPath id="SVGID_2_">
		<use xlink:href="#SVGID_1_"  style="overflow:visible;"/>
	</clipPath>
	<polyline class="st0" points="184.4,-47.2 184.9,-34.5 185.5,-18.7 186.1,-3.5 186.6,11.2 187.2,25.3 187.8,39 188.4,52.1 
		189,64.7 189.6,76.8 190.2,88.5 190.8,99.7 191.4,110.5 192,120.9 192.6,130.9 193.1,140.5 193.7,149.7 194.3,158.6 194.9,167.1 
		195.5,175.3 196.1,183.2 196.7,190.7 197.3,198 197.9,205 198.5,211.6 199.1,218.1 199.6,224.2 200.2,230.1 200.8,235.8 
		201.4,241.2 202,246.4 202.6,251.4 203.2,256.2 203.8,260.7 204.4,265.1 205,269.3 205.6,273.3 206.1,277.1 206.7,280.8 
		207.3,284.3 207.9,287.6 208.5,290.8 209.1,293.9 209.7,296.8 210.3,299.5 210.9,302.2 211.5,304.7 212.1,307.1 212.6,309.4 
		213.2,311.5 213.8,313.6 214.4,315.5 215,317.4 215.6,319.2 216.2,320.8 216.8,322.4 217.4,323.9 218,325.3 218.6,326.6 
		219.1,327.9 219.7,329.1 220.3,330.2 220.9,331.2 221.5,332.2 222.1,333.1 222.7,334 223.3,334.8 223.9,335.5 224.5,336.2 
		225.1,336.8 225.6,337.4 226.2,338 226.8,338.5 227.4,338.9 228,339.3 228.6,339.7 229.2,340 229.8,340.3 230.4,340.6 230.9,340.9 
		231.5,341.1 232.1,341.2 232.7,341.4 233.3,341.5 233.9,341.6 234.5,341.6 235.1,341.7 235.7,341.7 236.3,341.7 236.9,341.7 
		237.4,341.6 238,341.6 238.6,341.5 239.2,341.4 239.8,341.3 240.4,341.1 241,341 241.6,340.8 242.2,340.7 242.8,340.5 243.4,340.3 
		243.9,340.1 244.5,339.9 245.1,339.6 245.7,339.4 246.3,339.2 246.9,338.9 247.5,338.7 248.1,338.4 248.7,338.1 249.3,337.8 
		249.9,337.6 250.4,337.3 251,337 251.6,336.7 252.2,336.4 252.8,336.1 253.4,335.7 254,335.4 254.6,335.1 255.2,334.8 255.8,334.5 
		256.4,334.1 257,333.8 257.5,333.5 258.1,333.2 258.7,332.8 259.3,332.5 259.9,332.2 260.5,331.8 261.1,331.5 261.7,331.2 
		262.3,330.8 262.9,330.5 263.5,330.2 264,329.8 264.6,329.5 265.2,329.2 265.8,328.9 266.4,328.5 267,328.2 267.6,327.9 
		268.2,327.6 268.8,327.2 269.4,326.9 269.9,326.6 270.5,326.3 271.1,326 271.7,325.7 272.3,325.3 272.9,325 273.5,324.7 
		274.1,324.4 274.7,324.1 275.3,323.8 275.9,323.5 276.4,323.2 277,322.9 277.6,322.7 278.2,322.4 278.8,322.1 279.4,321.8 
		280,321.5 280.6,321.2 281.2,321 281.8,320.7 282.4,320.4 282.9,320.2 283.5,319.9 284.1,319.6 284.7,319.4 285.3,319.1 
		285.9,318.9 286.5,318.6 287.1,318.4 287.7,318.1 288.3,317.9 288.9,317.7 289.4,317.4 290,317.2 290.6,316.9 291.2,316.7 
		291.8,316.5 292.4,316.3 293,316 293.6,315.8 294.2,315.6 294.8,315.4 295.4,315.2 295.9,315 296.5,314.8 297.1,314.6 297.7,314.4 
		298.3,314.2 298.9,314 299.5,313.8 300.1,313.6 300.7,313.4 301.3,313.2 301.9,313 302.4,312.9 303,312.7 303.6,312.5 304.2,312.3 
		304.8,312.2 305.4,312 306,311.8 306.6,311.7 307.2,311.5 307.8,311.3 308.3,311.2 308.9,311 309.5,310.9 310.1,310.7 310.7,310.6 
		311.3,310.4 311.9,310.3 312.5,310.1 313.1,310 313.7,309.9 314.2,309.7 314.8,309.6 315.4,309.5 316,309.3 316.6,309.2 
		317.2,309.1 317.8,308.9 318.4,308.8 319,308.7 319.6,308.6 320.2,308.5 320.8,308.3 321.3,308.2 321.9,308.1 322.5,308 
		323.1,307.9 323.7,307.8 324.3,307.7 324.9,307.6 325.5,307.5 326.1,307.4 326.7,307.3 327.2,307.2 327.8,307.1 328.4,307 
		329,306.9 329.6,306.8 330.2,306.7 330.8,306.6 331.4,306.5 332,306.4 332.6,306.3 333.2,306.2 333.8,306.1 334.3,306.1 334.9,306 
		335.5,305.9 336.1,305.8 336.7,305.7 337.3,305.7 337.9,305.6 338.5,305.5 339.1,305.4 339.7,305.4 340.2,305.3 340.8,305.2 
		341.4,305.2 342,305.1 342.6,305 343.2,305 343.8,304.9 344.4,304.8 345,304.8 345.6,304.7 346.1,304.6 346.7,304.6 347.3,304.5 
		347.9,304.5 348.5,304.4 349.1,304.4 349.7,304.3 350.3,304.2 350.9,304.2 351.5,304.1 352.1,304.1 352.6,304 353.2,304 
		353.8,303.9 354.4,303.9 355,303.8 355.6,303.8 356.2,303.7 356.8,303.7 357.4,303.6 358,303.6 358.6,303.6 359.1,303.5 
		359.7,303.5 360.3,303.4 360.9,303.4 361.5,303.3 362.1,303.3 362.7,303.3 363.3,303.2 363.9,303.2 364.5,303.2 365.1,303.1 
		365.6,303.1 366.2,303 366.8,303 367.4,303 368,302.9 368.6,302.9 369.2,302.9 369.8,302.8 370.4,302.8 371,302.8 371.6,302.7 
		372.1,302.7 372.7,302.7 373.3,302.7 373.9,302.6 374.5,302.6 375.1,302.6 375.7,302.5 376.3,302.5 376.9,302.5 377.5,302.5 
		378.1,302.4 378.6,302.4 379.2,302.4 379.8,302.4 380.4,302.3 381,302.3 381.6,302.3 382.2,302.3 382.8,302.2 383.4,302.2 
		384,302.2 384.5,302.2 385.1,302.2 385.7,302.1 386.3,302.1 386.9,302.1 387.5,302.1 388.1,302 388.7,302 389.3,302 389.9,302 
		390.5,302 391,302 391.6,301.9 392.2,301.9 392.8,301.9 393.4,301.9 394,301.9 394.6,301.9 395.2,301.8 395.8,301.8 396.4,301.8 
		397,301.8 397.5,301.8 398.1,301.8 398.7,301.7 399.3,301.7 399.9,301.7 400.5,301.7 401.1,301.7 401.7,301.7 402.3,301.7 
		402.9,301.6 403.5,301.6 404,301.6 404.6,301.6 405.2,301.6 405.8,301.6 406.4,301.6 407,301.6 407.6,301.5 408.2,301.5 
		408.8,301.5 409.4,301.5 410,301.5 410.5,301.5 411.1,301.5 411.7,301.5 412.3,301.5 412.9,301.5 413.5,301.4 414.1,301.4 
		414.7,301.4 415.3,301.4 415.9,301.4 416.5,301.4 417,301.4 417.6,301.4 418.2,301.4 418.8,301.4 419.4,301.4 420,301.3 
		420.6,301.3 421.2,301.3 421.8,301.3 422.4,301.3 423,301.3 423.5,301.3 424.1,301.3 424.7,301.3 425.3,301.3 425.9,301.3 
		426.5,301.3 427.1,301.3 427.7,301.2 428.3,301.2 428.9,301.2 429.5,301.2 430,301.2 430.6,301.2 431.2,301.2 431.8,301.2 
		432.4,301.2 433,301.2 433.6,301.2 434.2,301.2 434.8,301.2 435.4,301.2 436,301.2 436.5,301.2 437.1,301.2 437.7,301.1 
		438.3,301.1 438.9,301.1 439.5,301.1 440.1,301.1 440.7,301.1 441.3,301.1 441.9,301.1 442.5,301.1 443,301.1 443.6,301.1 
		444.2,301.1 444.8,301.1 445.4,301.1 446,301.1 446.6,301.1 447.2,301.1 447.8,301.1 448.4,301.1 449,301.1 449.5,301.1 
		450.1,301.1 450.7,301.1 451.3,301.1 451.9,301 452.5,301 453.1,301 453.7,301 454.3,301 454.9,301 455.5,301 456,301 456.6,301 
		457.2,301 457.8,301 458.4,301 	"/>
</g>
<line class="st1" x1="73.2" y1="383.4" x2="428.2" y2="383.4"/>
<line class="st1" x1="73.2" y1="383.4" x2="73.2" y2="390.6"/>
<line class="st1" x1="132.4" y1="383.4" x2="132.4" y2="390.6"/>
<line class="st1" x1="191.6" y1="383.4" x2="191.6" y2="390.6"/>
<line class="st1" x1="250.7" y1="383.4" x2="250.7" y2="390.6"/>
<line class="st1" x1="309.9" y1="383.4" x2="309.9" y2="390.6"/>
<line class="st1" x1="369.1" y1="383.4" x2="369.1" y2="390.6"/>
<line class="st1" x1="428.2" y1="383.4" x2="428.2" y2="390.6"/>
<path class="st2" d="M75,405.2L75,405.2V405v-0.2l0-0.2v-0.2l0-0.2l0-0.2l0-0.2l0-0.1l0-0.1l0-0.1l0-0.1l0-0.1l0-0.1l0-0.1l0-0.1
	l0-0.1l0-0.1l0-0.1l0-0.1l0-0.1l-0.1-0.1l0-0.1l-0.1-0.1l-0.1-0.1l0-0.1l-0.1-0.1l-0.1,0l-0.1-0.1l-0.1,0l-0.1,0l-0.1,0l-0.1,0
	l-0.1,0l-0.1,0l-0.1,0l-0.1,0l-0.1,0l-0.1,0h-0.1h-0.1h-0.1h-0.1l-0.1,0l-0.1,0l-0.1,0l-0.1,0l-0.1,0l-0.1,0l-0.1,0l-0.1,0l-0.1,0
	l-0.1,0l-0.1,0l-0.1,0l-0.1,0l-0.1,0.1l-0.1,0.1l0,0.1l-0.1,0.1l-0.1,0.1l0,0.1l0,0.1l0,0.1l0,0.1l0,0.1l0,0.1l0,0.1l0,0.1l0,0.1
	l0,0.1l0,0.1l0,0.1l0,0.1l0,0.1l0,0.2l0,0.2l0,0.2l0,0.2v0.2v0.2v0.2v0.2l0,0.2l0,0.2l0,0.2l0,0.2l0,0.1l0,0.2l0,0.1l0,0.1l0,0.1
	l0,0.1l0,0.1l0,0.1l0,0.1l0,0.1l0,0.1l0,0.1l0,0.1l0.1,0.1l0,0.1L72,408l0.1,0.1l0,0.1l0.1,0.1l0.1,0.1l0.1,0l0.1,0.1l0.1,0l0.1,0
	l0.1,0l0.1,0l0.1,0l0.1,0l0.1,0l0.1,0l0.1,0l0.1,0h0.1l0.1,0l0.1,0h0.1l0.1,0l0.1,0l0.1,0l0.1,0l0.1,0l0.1,0l0.1,0l0.1,0l0.1,0
	l0.1,0l0.1-0.1l0.1,0l0-0.1l0.1-0.1l0-0.1l0.1-0.1l0.1-0.1l0-0.1l0-0.1l0.1-0.1l0-0.1l0-0.1l0-0.1l0-0.1l0-0.1l0-0.1l0-0.1l0-0.1
	l0-0.1l0-0.1l0-0.2l0-0.1l0-0.2l0-0.2l0-0.2l0-0.2v-0.2V405.2z M76.1,405.2L76.1,405.2l0,0.2v0.2l0,0.2l0,0.2l0,0.2l0,0.2l0,0.2
	l0,0.2l0,0.2l0,0.2l-0.1,0.2l0,0.1l-0.1,0.1l-0.1,0.1l-0.1,0.1l-0.1,0.1l-0.1,0.1l-0.1,0.1l-0.1,0.1l-0.1,0.1l-0.1,0.1l-0.1,0.1
	l-0.1,0.1l-0.1,0.1l-0.1,0.1l-0.1,0.1l-0.1,0.1l-0.1,0.1l-0.1,0.1l-0.1,0l-0.1,0l-0.1,0l-0.1,0l-0.1,0l-0.1,0l-0.1,0l-0.1,0l-0.1,0
	l-0.1,0h-0.1h-0.1l-0.1,0l-0.1,0l-0.1,0l-0.1,0l-0.1,0l-0.1,0l-0.1,0l-0.1,0l-0.1,0l-0.1,0l-0.1-0.1l-0.1,0l-0.1-0.1l-0.1-0.1
	l-0.1-0.1l-0.1-0.1l-0.1-0.1l-0.1-0.1l-0.1-0.1l-0.1-0.1l-0.1-0.1l-0.1-0.1l-0.1-0.1l-0.1-0.1l-0.1-0.1l-0.1-0.1l0-0.1l-0.1-0.1
	l0-0.2l0-0.2l0-0.2l0-0.2l0-0.2l0-0.2l0-0.2l0-0.2l0-0.2l0-0.2v-0.2v-0.2l0-0.2l0-0.2l0-0.2l0-0.2l0-0.2l0-0.2l0-0.2l0-0.2l0-0.2
	l0-0.2l0.1-0.2l0.1-0.1l0-0.1l0.1-0.1l0.1-0.1l0.1-0.1L71,402l0.1-0.1l0.1-0.1l0.1-0.1l0.1-0.1l0.1-0.1l0.1-0.1l0.1-0.1l0.1-0.1
	l0.1-0.1l0.1,0l0.1-0.1l0.1,0l0.1,0l0.1,0l0.1,0l0.1,0l0.1,0l0.1,0l0.1,0l0.1,0l0.1,0h0.1h0.1l0.1,0l0.1,0l0.1,0l0.1,0l0.1,0l0.1,0
	l0.1,0l0.1,0l0.1,0l0.1,0l0.1,0.1l0.1,0l0.1,0.1l0.1,0.1l0.1,0.1l0.1,0.1l0.1,0.1l0.1,0.1l0.1,0.1l0.1,0.1l0.1,0.1l0.1,0.1l0.1,0.1
	l0.1,0.1l0.1,0.1l0.1,0.1l0,0.1l0.1,0.2l0,0.2l0.1,0.2l0,0.2l0,0.2l0,0.2l0,0.2l0,0.2l0,0.2l0,0.2v0.2L76.1,405.2z"/>
<line class="st1" x1="59" y1="369.6" x2="59" y2="25.6"/>
<line class="st1" x1="59" y1="369.6" x2="51.8" y2="369.6"/>
<line class="st1" x1="59" y1="300.8" x2="51.8" y2="300.8"/>
<line class="st1" x1="59" y1="232" x2="51.8" y2="232"/>
<line class="st1" x1="59" y1="163.2" x2="51.8" y2="163.2"/>
<line class="st1" x1="59" y1="94.4" x2="51.8" y2="94.4"/>
<line class="st1" x1="59" y1="25.6" x2="51.8" y2="25.6"/>
<polyline class="st1" points="59,383.4 473.8,383.4 473.8,11.9 59,11.9 59,383.4 "/>
<g>
	<defs>
		<rect id="SVGID_3_" x="59" y="11.9" width="414.7" height="371.5"/>
	</defs>
	<clipPath id="SVGID_4_">
		<use xlink:href="#SVGID_3_"  style="overflow:visible;"/>
	</clipPath>
	<line class="st3" x1="59" y1="300.8" x2="473.8" y2="300.8"/>
	<polyline class="st4" points="184.4,-47.2 184.9,-34.5 185.5,-18.6 186.1,-3.4 186.6,11.3 187.2,25.4 187.8,39 188.4,52.1 
		189,64.7 189.6,76.8 190.2,88.5 190.8,99.7 191.4,110.5 192,120.9 192.6,130.9 193.1,140.5 193.7,149.8 194.3,158.6 194.9,167.2 
		195.5,175.3 196.1,183.2 196.7,190.8 197.3,198 197.9,205 198.5,211.6 199.1,218.1 199.6,224.2 200.2,230.1 200.8,235.8 
		201.4,241.2 202,246.4 202.6,251.4 203.2,256.2 203.8,260.8 204.4,265.1 205,269.3 205.6,273.3 206.1,277.1 206.7,280.8 
		207.3,284.3 207.9,287.6 208.5,290.8 209.1,293.9 209.7,296.8 210.3,299.6 210.9,302.2 211.5,304.7 212.1,307.1 212.6,309.4 
		213.2,311.5 213.8,313.6 214.4,315.6 215,317.4 215.6,319.2 216.2,320.8 216.8,322.4 217.4,323.9 218,325.3 218.6,326.6 
		219.1,327.9 219.7,329.1 220.3,330.2 220.9,331.2 221.5,332.2 222.1,333.1 222.7,334 223.3,334.8 223.9,335.5 224.5,336.2 
		225.1,336.8 225.6,337.4 226.2,338 226.8,338.5 227.4,338.9 228,339.3 228.6,339.7 229.2,340.1 229.8,340.4 230.4,340.6 
		230.9,340.9 231.5,341.1 232.1,341.2 232.7,341.4 233.3,341.5 233.9,341.6 234.5,341.6 235.1,341.7 235.7,341.7 236.3,341.7 
		236.9,341.7 237.4,341.6 238,341.6 238.6,341.5 239.2,341.4 239.8,341.3 240.4,341.1 241,341 241.6,340.8 242.2,340.7 242.8,340.5 
		243.4,340.3 243.9,340.1 244.5,339.9 245.1,339.6 245.7,339.4 246.3,339.2 246.9,338.9 247.5,338.7 248.1,338.4 248.7,338.1 
		249.3,337.8 249.9,337.6 250.4,337.3 251,337 251.6,336.7 252.2,336.4 252.8,336.1 253.4,335.7 254,335.4 254.6,335.1 255.2,334.8 
		255.8,334.5 256.4,334.1 257,333.8 257.5,333.5 258.1,333.2 258.7,332.8 259.3,332.5 259.9,332.2 260.5,331.8 261.1,331.5 
		261.7,331.2 262.3,330.8 262.9,330.5 263.5,330.2 264,329.8 264.6,329.5 265.2,329.2 265.8,328.9 266.4,328.5 267,328.2 
		267.6,327.9 268.2,327.6 268.8,327.2 269.4,326.9 269.9,326.6 270.5,326.3 271.1,326 271.7,325.7 272.3,325.3 272.9,325 
		273.5,324.7 274.1,324.4 274.7,324.1 275.3,323.8 275.9,323.5 276.4,323.2 277,322.9 277.6,322.7 278.2,322.4 278.8,322.1 
		279.4,321.8 280,321.5 280.6,321.2 281.2,321 281.8,320.7 282.4,320.4 282.9,320.2 283.5,319.9 284.1,319.6 284.7,319.4 
		285.3,319.1 285.9,318.9 286.5,318.6 287.1,318.4 287.7,318.1 288.3,317.9 288.9,317.7 289.4,317.4 290,317.2 290.6,316.9 
		291.2,316.7 291.8,316.5 292.4,316.3 293,316 293.6,315.8 294.2,315.6 294.8,315.4 295.4,315.2 295.9,315 296.5,314.8 297.1,314.6 
		297.7,314.4 298.3,314.2 298.9,314 299.5,313.8 300.1,313.6 300.7,313.4 301.3,313.2 301.9,313 302.4,312.9 303,312.7 303.6,312.5 
		304.2,312.3 304.8,312.2 305.4,312 306,311.8 306.6,311.7 307.2,311.5 307.8,311.3 308.3,311.2 308.9,311 309.5,310.9 310.1,310.7 
		310.7,310.6 311.3,310.4 311.9,310.3 312.5,310.1 313.1,310 313.7,309.9 314.2,309.7 314.8,309.6 315.4,309.5 316,309.3 
		316.6,309.2 317.2,309.1 317.8,308.9 318.4,308.8 319,308.7 319.6,308.6 320.2,308.5 320.8,308.3 321.3,308.2 321.9,308.1 
		322.5,308 323.1,307.9 323.7,307.8 324.3,307.7 324.9,307.6 325.5,307.5 326.1,307.4 326.7,307.3 327.2,307.2 327.8,307.1 
		328.4,307 329,306.9 329.6,306.8 330.2,306.7 330.8,306.6 331.4,306.5 332,306.4 332.6,306.3 333.2,306.2 333.8,306.1 334.3,306.1 
		334.9,306 335.5,305.9 336.1,305.8 336.7,305.7 337.3,305.7 337.9,305.6 338.5,305.5 339.1,305.4 339.7,305.4 340.2,305.3 
		340.8,305.2 341.4,305.2 342,305.1 342.6,305 343.2,305 343.8,304.9 344.4,304.8 345,304.8 345.6,304.7 346.1,304.6 346.7,304.6 
		347.3,304.5 347.9,304.5 348.5,304.4 349.1,304.4 349.7,304.3 350.3,304.2 350.9,304.2 351.5,304.1 352.1,304.1 352.6,304 
		353.2,304 353.8,303.9 354.4,303.9 355,303.8 355.6,303.8 356.2,303.7 356.8,303.7 357.4,303.6 358,303.6 358.6,303.6 359.1,303.5 
		359.7,303.5 360.3,303.4 360.9,303.4 361.5,303.3 362.1,303.3 362.7,303.3 363.3,303.2 363.9,303.2 364.5,303.2 365.1,303.1 
		365.6,303.1 366.2,303 366.8,303 367.4,303 368,302.9 368.6,302.9 369.2,302.9 369.8,302.8 370.4,302.8 371,302.8 371.6,302.7 
		372.1,302.7 372.7,302.7 373.3,302.7 373.9,302.6 374.5,302.6 375.1,302.6 375.7,302.5 376.3,302.5 376.9,302.5 377.5,302.5 
		378.1,302.4 378.6,302.4 379.2,302.4 379.8,302.4 380.4,302.3 381,302.3 381.6,302.3 382.2,302.3 382.8,302.2 383.4,302.2 
		384,302.2 384.5,302.2 385.1,302.2 385.7,302.1 386.3,302.1 386.9,302.1 387.5,302.1 388.1,302 388.7,302 389.3,302 389.9,302 
		390.5,302 391,302 391.6,301.9 392.2,301.9 392.8,301.9 393.4,301.9 394,301.9 394.6,301.9 395.2,301.8 395.8,301.8 396.4,301.8 
		397,301.8 397.5,301.8 398.1,301.8 398.7,301.7 399.3,301.7 399.9,301.7 400.5,301.7 401.1,301.7 401.7,301.7 402.3,301.7 
		402.9,301.6 403.5,301.6 404,301.6 404.6,301.6 405.2,301.6 405.8,301.6 406.4,301.6 407,301.6 407.6,301.5 408.2,301.5 
		408.8,301.5 409.4,301.5 410,301.5 410.5,301.5 411.1,301.5 411.7,301.5 412.3,301.5 412.9,301.5 413.5,301.4 414.1,301.4 
		414.7,301.4 415.3,301.4 415.9,301.4 416.5,301.4 417,301.4 417.6,301.4 418.2,301.4 418.8,301.4 419.4,301.4 420,301.3 
		420.6,301.3 421.2,301.3 421.8,301.3 422.4,301.3 423,301.3 423.5,301.3 424.1,301.3 424.7,301.3 425.3,301.3 425.9,301.3 
		426.5,301.3 427.1,301.3 427.7,301.2 428.3,301.2 428.9,301.2 429.5,301.2 430,301.2 430.6,301.2 431.2,301.2 431.8,301.2 
		432.4,301.2 433,301.2 433.6,301.2 434.2,301.2 434.8,301.2 435.4,301.2 436,301.2 436.5,301.2 437.1,301.2 437.7,301.1 
		438.3,301.1 438.9,301.1 439.5,301.1 440.1,301.1 440.7,301.1 441.3,301.1 441.9,301.1 442.5,301.1 443,301.1 443.6,301.1 
		444.2,301.1 444.8,301.1 445.4,301.1 446,301.1 446.6,301.1 447.2,301.1 447.8,301.1 448.4,301.1 449,301.1 449.5,301.1 
		450.1,301.1 450.7,301.1 451.3,301.1 451.9,301.1 452.5,301.1 453.1,301.1 453.7,301.1 454.3,301.1 454.9,301.1 455.5,301 456,301 
		456.6,301 457.2,300.9 457.8,300.8 458.4,300.8 	"/>
	<path class="st5" d="M187.2,76.8c0-1.3,1.1-2.4,2.4-2.4c1.3,0,2.4,1.1,2.4,2.4c0,1.3-1.1,2.4-2.4,2.4
		C188.3,79.2,187.2,78.1,187.2,76.8"/>
	<path class="st5" d="M196,211.6c0-1.3,1.1-2.4,2.4-2.4c1.3,0,2.4,1.1,2.4,2.4c0,1.3-1.1,2.4-2.4,2.4C197.1,214.1,196,213,196,211.6
		"/>
	<path class="st5" d="M204.9,284.3c0-1.3,1.1-2.4,2.4-2.4c1.3,0,2.4,1.1,2.4,2.4c0,1.3-1.1,2.4-2.4,2.4
		C206,286.7,204.9,285.6,204.9,284.3"/>
	<path class="st5" d="M213.8,320.8c0-1.3,1.1-2.4,2.4-2.4c1.3,0,2.4,1.1,2.4,2.4c0,1.3-1.1,2.4-2.4,2.4
		C214.8,323.2,213.8,322.2,213.8,320.8"/>
	<path class="st5" d="M222.6,336.8c0-1.3,1.1-2.4,2.4-2.4c1.3,0,2.4,1.1,2.4,2.4c0,1.3-1.1,2.4-2.4,2.4
		C223.7,339.3,222.6,338.2,222.6,336.8"/>
	<path class="st5" d="M231.5,341.6c0-1.3,1.1-2.4,2.4-2.4c1.3,0,2.4,1.1,2.4,2.4c0,1.3-1.1,2.4-2.4,2.4
		C232.6,344,231.5,342.9,231.5,341.6"/>
	<path class="st5" d="M240.3,340.5c0-1.3,1.1-2.4,2.4-2.4c1.3,0,2.4,1.1,2.4,2.4c0,1.3-1.1,2.4-2.4,2.4
		C241.4,342.9,240.3,341.8,240.3,340.5"/>
	<path class="st5" d="M249.2,336.7c0-1.3,1.1-2.4,2.4-2.4c1.3,0,2.4,1.1,2.4,2.4c0,1.3-1.1,2.4-2.4,2.4
		C250.3,339.1,249.2,338,249.2,336.7"/>
	<path class="st5" d="M258.1,331.8c0-1.3,1.1-2.4,2.4-2.4c1.3,0,2.4,1.1,2.4,2.4c0,1.3-1.1,2.4-2.4,2.4
		C259.2,334.3,258.1,333.2,258.1,331.8"/>
	<path class="st5" d="M266.9,326.9c0-1.3,1.1-2.4,2.4-2.4c1.3,0,2.4,1.1,2.4,2.4c0,1.3-1.1,2.4-2.4,2.4
		C268,329.3,266.9,328.3,266.9,326.9"/>
	<path class="st5" d="M275.8,322.4c0-1.3,1.1-2.4,2.4-2.4c1.3,0,2.4,1.1,2.4,2.4c0,1.3-1.1,2.4-2.4,2.4
		C276.9,324.8,275.8,323.7,275.8,322.4"/>
	<path class="st5" d="M284.6,318.4c0-1.3,1.1-2.4,2.4-2.4c1.3,0,2.4,1.1,2.4,2.4c0,1.3-1.1,2.4-2.4,2.4
		C285.7,320.8,284.6,319.7,284.6,318.4"/>
	<path class="st5" d="M293.5,315c0-1.3,1.1-2.4,2.4-2.4c1.3,0,2.4,1.1,2.4,2.4c0,1.3-1.1,2.4-2.4,2.4
		C294.6,317.4,293.5,316.3,293.5,315"/>
	<path class="st5" d="M302.4,312.2c0-1.3,1.1-2.4,2.4-2.4c1.3,0,2.4,1.1,2.4,2.4c0,1.3-1.1,2.4-2.4,2.4
		C303.5,314.6,302.4,313.5,302.4,312.2"/>
	<path class="st5" d="M311.2,309.9c0-1.3,1.1-2.4,2.4-2.4c1.3,0,2.4,1.1,2.4,2.4c0,1.3-1.1,2.4-2.4,2.4
		C312.3,312.3,311.2,311.2,311.2,309.9"/>
	<path class="st5" d="M320.1,308c0-1.3,1.1-2.4,2.4-2.4c1.3,0,2.4,1.1,2.4,2.4c0,1.3-1.1,2.4-2.4,2.4
		C321.2,310.4,320.1,309.3,320.1,308"/>
	<path class="st5" d="M328.9,306.5c0-1.3,1.1-2.4,2.4-2.4c1.3,0,2.4,1.1,2.4,2.4c0,1.3-1.1,2.4-2.4,2.4
		C330,308.9,328.9,307.8,328.9,306.5"/>
	<path class="st5" d="M337.8,305.3c0-1.3,1.1-2.4,2.4-2.4c1.3,0,2.4,1.1,2.4,2.4c0,1.3-1.1,2.4-2.4,2.4
		C338.9,307.7,337.8,306.6,337.8,305.3"/>
	<path class="st5" d="M346.7,304.4c0-1.3,1.1-2.4,2.4-2.4c1.3,0,2.4,1.1,2.4,2.4c0,1.3-1.1,2.4-2.4,2.4
		C347.8,306.8,346.7,305.7,346.7,304.4"/>
	<path class="st5" d="M355.5,303.6c0-1.3,1.1-2.4,2.4-2.4c1.3,0,2.4,1.1,2.4,2.4c0,1.3-1.1,2.4-2.4,2.4
		C356.6,306,355.5,304.9,355.5,303.6"/>
	<path class="st5" d="M364.4,303c0-1.3,1.1-2.4,2.4-2.4c1.3,0,2.4,1.1,2.4,2.4c0,1.3-1.1,2.4-2.4,2.4
		C365.5,305.4,364.4,304.3,364.4,303"/>
	<path class="st5" d="M373.3,302.5c0-1.3,1.1-2.4,2.4-2.4c1.3,0,2.4,1.1,2.4,2.4c0,1.3-1.1,2.4-2.4,2.4
		C374.4,305,373.3,303.9,373.3,302.5"/>
	<path class="st5" d="M382.1,302.2c0-1.3,1.1-2.4,2.4-2.4c1.3,0,2.4,1.1,2.4,2.4c0,1.3-1.1,2.4-2.4,2.4
		C383.2,304.6,382.1,303.5,382.1,302.2"/>
	<path class="st5" d="M391,301.9c0-1.3,1.1-2.4,2.4-2.4c1.3,0,2.4,1.1,2.4,2.4c0,1.3-1.1,2.4-2.4,2.4
		C392.1,304.3,391,303.2,391,301.9"/>
	<path class="st5" d="M399.8,301.7c0-1.3,1.1-2.4,2.4-2.4c1.3,0,2.4,1.1,2.4,2.4c0,1.3-1.1,2.4-2.4,2.4
		C400.9,304.1,399.8,303,399.8,301.7"/>
	<path class="st5" d="M408.7,301.5c0-1.3,1.1-2.4,2.4-2.4c1.3,0,2.4,1.1,2.4,2.4c0,1.3-1.1,2.4-2.4,2.4
		C409.8,303.9,408.7,302.8,408.7,301.5"/>
	<path class="st5" d="M417.6,301.3c0-1.3,1.1-2.4,2.4-2.4c1.3,0,2.4,1.1,2.4,2.4c0,1.3-1.1,2.4-2.4,2.4
		C418.7,303.8,417.6,302.7,417.6,301.3"/>
	<path class="st5" d="M426.4,301.2c0-1.3,1.1-2.4,2.4-2.4c1.3,0,2.4,1.1,2.4,2.4c0,1.3-1.1,2.4-2.4,2.4
		C427.5,303.7,426.4,302.6,426.4,301.2"/>
	<path class="st5" d="M435.3,301.1c0-1.3,1.1-2.4,2.4-2.4c1.3,0,2.4,1.1,2.4,2.4c0,1.3-1.1,2.4-2.4,2.4
		C436.4,303.6,435.3,302.5,435.3,301.1"/>
	<path class="st5" d="M444.1,301.1c0-1.3,1.1-2.4,2.4-2.4c1.3,0,2.4,1.1,2.4,2.4c0,1.3-1.1,2.4-2.4,2.4
		C445.2,303.5,444.1,302.4,444.1,301.1"/>
	<path class="st5" d="M453,301c0-1.3,1.1-2.4,2.4-2.4c1.3,0,2.4,1.1,2.4,2.4c0,1.3-1.1,2.4-2.4,2.4C454.1,303.5,453,302.4,453,301"
		/>
</g>
<text transform="matrix(1 0 0 1 228.3756 433.0496)" class="st6 st7">Separation / Å</text>
<g>
	<g>
		<text transform="matrix(1 0 0 1 376.0826 78.8197)" class="st6 st7">[Table-Form:OU]</text>
		<line class="st8" x1="367" y1="76.6" x2="336.4" y2="76.6"/>
	</g>
	<g>
		<text transform="matrix(1 0 0 1 376.0826 56.5544)" class="st6 st7">Analytical Form</text>
		<line class="st9" x1="367" y1="54.3" x2="336.4" y2="54.3"/>
	</g>
	<g>
		<text transform="matrix(1 0 0 1 376.0821 34.2892)" class="st6 st7">Table Points</text>
		<path class="st10" d="M349.2,32c0-1.3,1.1-2.4,2.4-2.4s2.4,1.1,2.4,2.4c0,1.3-1.1,2.4-2.4,2.4S349.2,33.4,349.2,32"/>
	</g>
</g>
<text transform="matrix(1 0 0 1 69.8631 409.4465)" class="st6 st7">0</text>
<text transform="matrix(1 0 0 1 129.0529 409.4467)" class="st6 st7">1</text>
<text transform="matrix(1 0 0 1 188.2132 409.4467)" class="st6 st7">2</text>
<text transform="matrix(1 0 0 1 247.3736 409.4467)" class="st6 st7">3</text>
<text transform="matrix(1 0 0 1 306.5339 409.4467)" class="st6 st7">4</text>
<text transform="matrix(1 0 0 1 365.6943 409.4467)" class="st6 st7">5</text>
<text transform="matrix(1 0 0 1 424.8547 409.4467)" class="st6 st7">6</text>
<text transform="matrix(6.123234e-17 -1 1 6.123234e-17 41.8713 380.0447)" class="st6 st7">-0.5</text>
<text transform="matrix(6.123234e-17 -1 1 6.123234e-17 41.8713 309.1873)" class="st6 st7">0.0</text>
<text transform="matrix(6.123234e-17 -1 1 6.123234e-17 41.8713 171.4686)" class="st6 st7">1.0</text>
<text transform="matrix(6.123234e-17 -1 1 6.123234e-17 41.8713 239.8172)" class="st6 st7">0.5</text>
<text transform="matrix(6.123234e-17 -1 1 6.123234e-17 41.8713 102.6092)" class="st6 st7">1.5</text>
<text transform="matrix(6.123234e-17 -1 1 6.123234e-17 41.8713 33.7498)" class="st6 st7">2.0</text>
<text transform="matrix(6.123234e-17 -1 1 6.123234e-17 19.7886 254.014)" class="st6 st7">Potential Energy / eV</text>
</svg>
